<svg version="1.1" xmlns="http://www.w3.org/2000/svg" style="display: block;" viewBox="0 0 2048 2048" width="1024" height="1024" preserveAspectRatio="none">
<path transform="translate(0,0)" fill="rgb(33,75,118)" d="M 1024.08 595.434 C 1098.32 532.022 1156.47 488.259 1246.43 445.721 C 1398.1 373.999 1562.21 365.166 1725.56 393.37 C 1759.95 399.308 1809.93 410.06 1842.82 421.995 L 1842.97 1508.21 C 1718.76 1438.65 1581.14 1380.64 1436.7 1379.21 C 1357.18 1380.98 1304.24 1393.4 1232.31 1426.06 C 1233.26 1438.14 1232.78 1455.68 1232.8 1468.06 L 1232.83 1538.44 C 1232.61 1600.82 1216.13 1650.58 1170.67 1695.37 C 1131.26 1733.92 1078.22 1755.35 1023.09 1754.99 C 919.132 1753.8 833.278 1680.32 817.42 1576.49 C 813.913 1553.53 814.917 1527.43 815.064 1504.01 C 815.038 1477.69 815.248 1451.37 815.692 1425.05 C 791.224 1415.23 767.673 1405.3 742.352 1397.86 C 555.973 1343.09 367.356 1418.43 205.032 1508.21 C 206.118 1463.2 205.251 1414.73 205.218 1369.37 L 205.064 1112.26 L 205.049 421.757 C 271.528 398.141 379.023 382.881 448.466 379.422 C 448.685 379.392 448.904 379.361 449.123 379.33 C 481.251 378.487 514.624 378.533 546.548 380.416 C 684.966 388.579 815.724 440.239 928.731 519.392 C 961.533 542.368 993.671 569.14 1024.08 595.434 z M 293.966 488.684 C 295.032 509.043 294.049 536.632 294.039 557.604 L 294.038 691.472 L 294.039 1132.83 L 294.024 1278.75 C 294.026 1306.36 293.401 1337.11 294.536 1364.51 C 468.262 1291.57 641.193 1257.76 821.686 1331.65 C 832.875 1336.25 843.895 1341.25 854.724 1346.64 C 902.635 1370.84 956.017 1403.96 995.755 1440.39 C 993.879 1420.25 995.58 1380.72 995.585 1358.42 L 995.521 1186.48 L 995.047 656.234 C 967.847 631.103 927.69 603.014 896.237 583.829 C 766.07 504.091 615.769 463.347 463.152 466.425 C 416.568 469.032 371.105 472.92 325.302 482.415 C 314.87 484.577 304.437 486.716 293.966 488.684 z M 1024.14 1590.27 C 979.668 1544.1 955.563 1519.57 904.231 1480.84 C 904.902 1538.34 895.736 1590.29 941.36 1634.38 C 988.915 1680.33 1063.71 1679.15 1109.47 1631.75 C 1128.23 1612.32 1141.69 1583.91 1143.45 1557.25 C 1145.34 1535.63 1144.06 1503.03 1144.03 1480.54 C 1122.59 1496.93 1103.39 1512.15 1083.56 1530.49 C 1062.73 1549.75 1044.06 1570.41 1024.14 1590.27 z M 1544.53 466.431 C 1394.17 473.439 1259.45 513.618 1132.81 596.058 C 1114.07 608.391 1095.83 621.463 1078.13 635.243 C 1069.98 641.498 1060.75 649.504 1052.61 655.281 L 1053.03 1440.22 C 1102.32 1396.9 1168.88 1354.57 1230.25 1330.62 C 1405.04 1261.83 1586.35 1288.17 1754.02 1365.28 L 1753.72 816.377 L 1753.72 599.043 C 1753.69 563.682 1752.67 523.473 1753.55 488.556 C 1729.46 483.751 1706.18 478.69 1681.84 475.024 C 1636.36 468.587 1590.45 465.715 1544.53 466.431 z"/>
<path transform="translate(0,0)" fill="rgb(33,75,118)" d="M 1006.7 293.395 C 1030.3 290.03 1071.85 296.889 1094.28 303.813 C 1152.2 321.697 1196.28 364.055 1224.2 416.951 C 1197.41 429.65 1170.72 445.15 1145.38 460.5 C 1122.46 413.71 1091.83 388.486 1039.25 381.277 C 1019.29 378.878 999.039 381.059 980.044 387.655 C 942.468 400.962 919.626 425.183 902.829 460.373 C 895.273 456.852 881.636 448.364 873.927 443.958 C 857.63 434.48 840.933 425.707 823.883 417.662 C 828.974 405.137 842.545 384.521 851.209 374.25 C 894.343 323.113 941.771 300.534 1006.7 293.395 z"/>
</svg>