<svg version="1.1" xmlns="http://www.w3.org/2000/svg" style="display: block;" viewBox="0 0 2048 2048" width="1024" height="1024" preserveAspectRatio="none">
<path transform="translate(0,0)" fill="rgb(55,55,55)" d="M 1525.11 338.466 L 1710.18 522.881 C 1694.56 540.681 1667.82 565.529 1650.18 583.177 L 1525.91 707.47 L 1331.74 901.519 C 1292.27 940.996 1248.98 986.291 1208.44 1023.83 L 1593.29 1407.8 C 1643.18 1457.62 1693.44 1507.1 1743.01 1557.22 C 1753.29 1567.61 1765.29 1577.82 1774.34 1589.19 C 1754.53 1610.31 1730.37 1633.24 1709.67 1653.85 C 1669.29 1693.75 1629.28 1734.02 1589.65 1774.66 C 1572.07 1759.74 1544.11 1729.09 1526.38 1711.77 L 1254.14 1439.48 C 1178.14 1363.42 1098.38 1285.59 1023.94 1208.43 C 1006.78 1227.88 980.814 1252.51 962.115 1271.17 L 854.507 1378.73 C 723.552 1509.87 588.396 1642.07 459.517 1774.79 C 439.781 1756.33 418.642 1734.08 399.268 1714.7 L 273.456 1589.08 C 314.024 1547.08 357.577 1504.82 398.982 1463.47 L 680.961 1182.57 L 782.938 1080.52 C 800.45 1063 823.148 1041.71 839.251 1023.53 L 438.551 623.587 C 405.206 589.768 371.598 556.21 337.729 522.916 L 436.81 423.818 C 465.058 395.591 493.739 366.226 522.409 338.523 C 530.729 344.346 555.948 371.076 564.355 379.475 L 661.372 476.512 L 873.964 688.855 C 923.852 738.617 975.052 788.929 1024.29 839.246 L 1525.11 338.466 z M 1024.3 921.808 C 1007.73 906.453 990.798 888.747 974.738 872.565 L 898.383 795.992 L 675.121 573.198 C 625.054 522.932 573.595 469.753 522.57 420.708 L 420.243 523.222 C 435.972 537.56 452.072 554.141 467.252 569.266 L 553.819 656.174 L 797.869 899.483 L 878.999 980.799 C 889.364 991.269 912.559 1016.02 922.732 1023.81 L 539.919 1405.57 C 479.41 1467.1 418.211 1527.94 356.332 1588.09 L 459.184 1690.79 L 832.662 1317.2 L 960.769 1189.07 C 978.233 1171.63 1006.23 1141.66 1023.75 1126.56 C 1055.34 1156.28 1084.67 1186.86 1115.33 1217.49 C 1166.31 1267.59 1216.84 1318.13 1266.94 1369.12 L 1525.96 1627.61 C 1547.42 1648.63 1568.08 1671.02 1589.32 1691.75 C 1611.87 1668.5 1634.64 1645.47 1657.63 1622.65 C 1666.31 1613.97 1683.86 1597.61 1691.04 1589.06 C 1674.49 1571.19 1653.94 1551.5 1636.53 1534.08 L 1536.65 1434.17 L 1258.03 1155.96 L 1166.72 1064.5 C 1154.05 1051.8 1137.75 1036.95 1125.93 1024.23 C 1204.29 944.065 1285.71 864.02 1365.21 784.841 L 1627.5 523.006 C 1593.45 488.971 1559.56 454.284 1525.22 420.606 C 1480.66 465.784 1435.78 510.635 1390.57 555.157 L 1189.38 756.518 L 1078.39 867.596 C 1062.15 883.898 1040.8 906.743 1024.3 921.808 z"/>
</svg>