<svg version="1.1" xmlns="http://www.w3.org/2000/svg" style="display: block;" viewBox="0 0 2048 2048" width="1024" height="1024" preserveAspectRatio="none">
<path transform="translate(0,0)" fill="rgb(59,154,209)" d="M 993.249 396.902 C 1339.62 379.97 1634.13 647.04 1651.04 993.41 C 1667.96 1339.78 1400.87 1634.28 1054.5 1651.18 C 708.157 1668.07 413.685 1401.01 396.771 1054.66 C 379.857 708.318 646.904 413.834 993.249 396.902 z M 1032.5 1626.7 C 1365.2 1621.99 1631.16 1348.6 1626.71 1015.9 C 1622.26 683.2 1349.09 417.021 1016.39 421.202 C 683.306 425.387 416.76 698.936 421.212 1032.01 C 425.664 1365.09 699.426 1631.42 1032.5 1626.7 z"/>
<path transform="translate(0,0)" fill="rgb(42,60,75)" d="M 998.198 488.379 C 1293.62 474.143 1544.75 701.885 1559.36 997.29 C 1573.97 1292.69 1346.56 1544.11 1051.17 1559.1 C 755.247 1574.12 503.275 1346.2 488.635 1050.26 C 473.994 754.32 702.239 502.64 998.198 488.379 z"/>
<path transform="translate(0,0)" fill="rgb(56,78,99)" d="M 1002.58 670.391 C 1064.84 662.347 1141.91 686.885 1179.14 739.005 C 1213.96 787.739 1212.88 851.65 1204.3 908.067 C 1229.77 928.738 1224.52 958.764 1215.7 986.317 C 1208.99 1007.28 1200.21 1019.56 1183.6 1033.34 C 1176.25 1059.35 1166.15 1085.32 1152.75 1109.01 C 1145.51 1121.79 1133.23 1135.81 1127.05 1148.37 C 1124.7 1153.15 1125.61 1175.66 1126.09 1181.8 C 1129.62 1236.26 1185.18 1248.56 1226.91 1264.21 C 1267.38 1279.38 1315.74 1292.5 1350.2 1319.08 C 1364.06 1329.76 1373.77 1346.04 1381.38 1361.16 L 1380.27 1362.48 C 1367.59 1377.26 1346.27 1394.71 1331.25 1406.73 C 1267.36 1458.19 1191.73 1493.04 1111.1 1508.19 C 1090.74 1511.8 1070.82 1513.23 1050.25 1514.93 C 1042.84 1515.29 1035.43 1515.46 1028.01 1515.46 C 885.27 1514.43 766.981 1462.71 667.065 1361.41 C 702.362 1265.53 880.98 1278.11 915.393 1206.48 C 922.253 1192.2 925.186 1163.79 920.675 1148.9 C 916.87 1136.35 901.273 1119.75 894.474 1107.22 C 880.459 1081.4 872.769 1058.53 863.356 1031.15 C 834.249 1013.29 819.091 960.397 828.789 928.329 C 831.666 918.816 836.329 914.537 843.516 908.546 C 842.737 903.032 842.008 897.512 841.33 891.985 C 826.539 768.3 872.592 685.732 1002.58 670.391 z"/>
</svg>