<?xml version="1.0" encoding="UTF-8" standalone="no"?>
<!-- Created with Inkscape (http://www.inkscape.org/) -->

<svg
   xmlns:dc="http://purl.org/dc/elements/1.1/"
   xmlns:cc="http://creativecommons.org/ns#"
   xmlns:rdf="http://www.w3.org/1999/02/22-rdf-syntax-ns#"
   xmlns:svg="http://www.w3.org/2000/svg"
   xmlns="http://www.w3.org/2000/svg"
   xmlns:sodipodi="http://sodipodi.sourceforge.net/DTD/sodipodi-0.dtd"
   xmlns:inkscape="http://www.inkscape.org/namespaces/inkscape"
   id="svg2985"
   version="1.1"
   inkscape:version="0.48.5 r10040"
   width="1000"
   height="207.35213"
   xml:space="preserve"
   sodipodi:docname="A.svg"><metadata
     id="metadata2991"><rdf:RDF><cc:Work
         rdf:about=""><dc:format>image/svg+xml</dc:format><dc:type
           rdf:resource="http://purl.org/dc/dcmitype/StillImage" /><dc:title></dc:title></cc:Work></rdf:RDF></metadata><defs
     id="defs2989"><clipPath
       clipPathUnits="userSpaceOnUse"
       id="clipPath3005"><path
         d="M 0,0 576,0 576,756 0,756 0,0 z"
         id="path3007"
         inkscape:connector-curvature="0" /></clipPath><clipPath
       clipPathUnits="userSpaceOnUse"
       id="clipPath3133"><path
         d="M 0,0 576,0 576,756 0,756 0,0 z"
         id="path3135"
         inkscape:connector-curvature="0" /></clipPath><clipPath
       clipPathUnits="userSpaceOnUse"
       id="clipPath3215"><path
         d="m 38.175,419.092 152,0 0,85 -152,0 0,-85 z"
         id="path3217"
         inkscape:connector-curvature="0" /></clipPath><clipPath
       clipPathUnits="userSpaceOnUse"
       id="clipPath3227"><path
         d="m 41.198,327.573 c 0.05,-4.119 0.269,-8.462 0.357,-9.343 l 0,0 c 0.173,-1.75 0.541,-5.894 0.566,-8.137 l 0,0 c 0.024,-2.243 -0.031,-7.507 0.093,-10.932 l 0,0 c 0.123,-3.425 0.432,-8.808 0.432,-8.808 l 0,0 c 0,0 2.69,-0.241 4.711,-0.216 l 0,0 c 2.021,0.025 4.163,0.383 5.986,0.851 l 0,0 c 1.824,0.468 7.114,1.944 8.691,2.338 l 0,0 c 1.577,0.394 10.376,1.165 11.806,1.288 l 0,0 c 1.43,0.123 6.967,0.149 13.685,0.077 l 0,0 c 6.3,-0.066 12.379,-0.352 12.379,-0.352 l 0,0 c 0,0 10.769,-0.25 19.369,-0.352 l 0,0 c 16.584,-0.196 40.866,-0.312 40.866,-0.312 l 0,0 c 0,0 3.696,0.035 5.717,-0.136 l 0,0 c 2.022,-0.173 9.159,-1.656 10.269,-1.903 l 0,0 c 1.108,-0.247 5.365,-1.115 6.178,-1.288 l 0,0 c 0.813,-0.173 2.276,-0.167 2.917,-0.216 l 0,0 c 0.641,-0.049 2.802,-0.186 2.802,-0.186 l 0,0 c 0,0 -0.753,5.558 -1.073,8.934 l 0,0 c -0.321,3.376 -0.325,10.38 -0.325,10.38 l 0,0 c 0,0 -0.149,10.333 -0.099,11.097 l 0,0 c 0.049,0.764 -0.095,5.698 -0.118,6.743 l 0,0 c -0.024,1.109 0.393,2.028 0.295,3.162 l 0,0 c -0.099,1.134 -0.295,3.326 -0.295,3.326 l 0,0 c 0,0 -5.75,-0.152 -6.663,-0.473 l 0,0 c -0.911,-0.32 -0.905,-0.603 -2.199,-1.038 l 0,0 c -0.839,-0.282 -0.914,-0.243 -1.777,-0.318 l 0,0 c -0.862,-0.074 -4.108,-0.653 -5.489,-0.874 l 0,0 c -1.38,-0.222 -4.12,-0.752 -6.215,-0.825 l 0,0 c -2.096,-0.074 -9.447,-0.325 -11.394,-0.3 l 0,0 c -1.947,0.024 -8.018,0.009 -16.809,0.287 l 0,0 c -8.416,0.267 -12.74,0.155 -17.423,0.13 l 0,0 c -2.763,-0.015 -17.057,0.011 -28.596,-0.085 l 0,0 c -7.987,-0.066 -14.517,0.164 -15.134,0.174 l 0,0 c -1.504,0.025 -5.516,0.543 -6.256,0.567 l 0,0 c -0.739,0.025 -1.486,-0.199 -1.929,-0.248 l 0,0 c -0.444,-0.049 -1.98,0.369 -4.026,0.715 l 0,0 c -2.046,0.345 -4.552,0.719 -4.552,0.719 l 0,0 c 0,0 -2.822,1.002 -4.892,1.569 l 0,0 c -2.071,0.567 -4.701,0.677 -5.86,0.924 l 0,0 c -1.159,0.246 -5.923,0.968 -5.923,0.968 l 0,0 c 0,0 -0.121,-3.845 -0.072,-7.907"
         id="path3229"
         inkscape:connector-curvature="0" /></clipPath><clipPath
       clipPathUnits="userSpaceOnUse"
       id="clipPath3243"><path
         d="m 245.126,434.38 41.756,0 0,-27.341 -41.756,0 0,27.341 z"
         id="path3245"
         inkscape:connector-curvature="0" /></clipPath><clipPath
       clipPathUnits="userSpaceOnUse"
       id="clipPath3259"><path
         d="m 289.12,434.38 41.763,0 0,-27.341 -41.763,0 0,27.341 z"
         id="path3261"
         inkscape:connector-curvature="0" /></clipPath><clipPath
       clipPathUnits="userSpaceOnUse"
       id="clipPath3275"><path
         d="M 0,0 576,0 576,756 0,756 0,0 z"
         id="path3277"
         inkscape:connector-curvature="0" /></clipPath><clipPath
       clipPathUnits="userSpaceOnUse"
       id="clipPath3339"><path
         d="m 431.734,515.142 c -2.174,0 -2.415,-1.702 -2.415,-2.188 l 0,0 0,-100.657 c 0,-1.824 0.362,-3.891 1.691,-4.255 l 0,0 60.651,0 c 1.571,0 3.02,0.608 3.02,1.945 l 0,0 0,101.873 c 0,3.039 -3.261,3.282 -3.261,3.282 l 0,0 -59.686,0 z m 22.297,-4.961 5.3,0 c 0.618,0 0.663,0.578 0.751,0.844 l 0,0 c 0.088,0.267 0.222,1.271 1.546,1.378 l 0,0 c 1.103,0.088 1.634,-0.355 1.767,-0.889 l 0,0 c 0.132,-0.445 0.088,-1.333 0.838,-1.378 l 0,0 c 0.751,-0.044 3.71,0 3.71,0 l 0,0 0.928,-0.044 c 2.319,-1.114 0.751,-3.244 0.133,-3.244 l 0,0 -14.841,0 c -1.721,0.756 -0.883,3.333 -0.132,3.333"
         id="path3341"
         inkscape:connector-curvature="0" /></clipPath><clipPath
       clipPathUnits="userSpaceOnUse"
       id="clipPath3379"><path
         d="M 0,0 576,0 576,756 0,756 0,0 z"
         id="path3381"
         inkscape:connector-curvature="0" /></clipPath><clipPath
       clipPathUnits="userSpaceOnUse"
       id="clipPath3455"><path
         d="m 174.115,705.859 c -0.089,-0.05 -0.053,-0.39 -0.053,-0.47 l 0,0 c 0.018,-0.04 0.059,-0.071 0.107,-0.075 l 0,0 1.352,-0.006 c 0.036,-0.01 0.065,-0.035 0.077,-0.065 l 0,0 -0.018,-21.497 c -0.036,-0.136 -0.525,-0.091 -0.554,-0.065 l 0,0 -0.227,0.215 c -0.544,0.555 -1.22,0.812 -1.995,0.973 l 0,0 c -0.609,0.126 -1.132,0.209 -1.883,0.303 l 0,0 -2.824,0.287 c -0.406,0.08 -0.828,0.13 -1.133,0.423 l 0,0 c -0.143,0.136 -0.202,0.322 -0.136,0.504 l 0,0 c 0.107,0.247 0.428,0.314 0.72,0.334 l 0,0 c 0.292,0.045 0.489,-0.106 0.709,-0.202 l 0,0 c 0.482,-0.227 0.937,-0.279 1.532,-0.228 l 0,0 c 1.889,0.226 3.151,1.925 3.628,3.314 l 0,0 c 0.31,0.993 0.53,2.015 0.501,3.123 l 0,0 c -0.007,1.531 -0.366,2.836 -1.116,4.106 l 0,0 c -0.203,0.353 -0.601,0.903 -1.022,1.299 l 0,0 c -0.029,0.933 0.157,1.881 0.544,2.528 l 0,0 c 0.086,0.143 0.251,0.371 0.482,0.337 l 0,0 c 0.075,-0.01 0.128,-0.057 0.125,-0.105 l 0,0 c -0.013,-0.29 0.011,-0.492 0.072,-0.709 l 0,0 c 0.073,-0.258 0.369,-0.549 0.738,-0.592 l 0,0 c 0.363,-0.053 0.651,-0.004 0.957,0.234 l 0,0 c 0.467,0.362 0.527,0.893 0.445,1.425 l 0,0 c -0.084,0.537 -0.736,0.938 -1.295,0.938 l 0,0 c -0.707,0 -1.025,-0.129 -1.484,-0.466 l 0,0 c -0.97,-0.857 -1.227,-1.945 -1.245,-3.133 l 0,0 c -0.012,-0.036 -0.02,-0.115 -0.084,-0.081 l 0,0 c -0.334,0.176 -0.467,0.238 -0.929,0.301 l 0,0 c -1.359,0.184 -2.55,-0.411 -3.342,-1.332 l 0,0 c -1.418,-1.678 -1.823,-3.606 -1.633,-5.802 l 0,0 c 0.185,-1.652 0.656,-3.214 2.026,-4.443 l 0,0 c 0.035,-0.02 0.041,-0.066 0,-0.086 l 0,0 c -0.322,-0.071 -0.63,-0.172 -0.912,-0.327 l 0,0 c -0.687,-0.377 -0.953,-0.796 -0.953,-1.37 l 0,0 c 0,-1.201 0.943,-1.758 1.932,-2.101 l 0,0 c 0.018,-0.025 -0.007,-0.05 -0.03,-0.065 l 0,0 c -0.44,-0.192 -0.882,-0.394 -1.299,-0.64 l 0,0 c -1.126,-0.726 -1.788,-1.604 -1.794,-2.788 l 0,0 c 0,0 0.006,-0.337 0.047,-0.478 l 0,0 c 0.215,-1.38 1.67,-2.392 3.166,-2.865 l 0,0 c 0.899,-0.252 1.751,-0.352 2.897,-0.307 l 0,0 c 1.254,0.049 2.089,0.312 2.93,0.756 l 0,0 c 1.21,0.638 1.913,1.496 2.361,2.609 l 0,0 c 0.452,1.121 0.327,2.433 -0.203,3.486 l 0,0 c 0.025,0.04 4.111,0.025 4.111,0.025 l 0,0 0.048,0.05 c 0.006,0.101 0.053,0.454 -0.054,0.515 l 0,0 -1.375,0.005 c -0.042,0.004 -0.09,0.025 -0.095,0.065 l 0,0 -0.007,6.367 0.024,3.352 c 0.046,1.598 0.062,2.79 1.014,3.943 l 0,0 c 0.283,0.351 0.824,0.651 1.451,0.651 l 0,0 c 1.378,0 1.633,-1.267 1.633,-2.918 l 0,0 -0.011,-2.024 -0.025,-3.83 0,-5.43 c 0.018,-0.075 -0.017,-0.146 -0.083,-0.181 l 0,0 -1.412,0 -0.041,-0.03 c -0.012,-0.096 -0.036,-0.454 0.024,-0.539 l 0,0 5.343,-0.011 0.054,0.02 c 0.017,0.096 0.077,0.474 -0.031,0.544 l 0,0 -1.185,0.005 c -0.089,0 -0.185,0.006 -0.226,0.076 l 0,0 -0.018,4.347 -0.006,2.881 -0.006,3.307 c 0,3.941 -1.74,4.599 -3.572,4.599 l 0,0 c -0.994,0 -1.719,-0.386 -2.194,-0.901 l 0,0 c -0.299,-0.324 -0.443,-0.598 -0.637,-0.993 l 0,0 c -0.011,-0.023 -0.048,0.005 -0.066,0.019 l 0,0 0,6.854 0.006,-0.005 0.006,1.9 c -0.006,0.049 -0.012,0.115 -0.078,0.126 l 0,0 -3.52,0.025 -0.256,-0.011 z m -5.997,-18.162 c -0.325,0.678 -0.5,1.852 -0.5,3.84 l 0,0 c 0,0.17 0.001,0.986 0.001,1.491 l 0,0 c 0,4.351 0.64,5.289 1.925,5.289 l 0,0 c 1.399,0 1.891,-0.926 1.891,-5.161 l 0,0 c 0,-0.66 0.004,-1.258 0.004,-1.502 l 0,0 c 0,-0.871 -0.026,-1.607 -0.09,-2.222 l 0,0 c -0.191,-1.844 -0.713,-2.593 -1.832,-2.593 l 0,0 c -0.599,0 -1.074,0.181 -1.399,0.858 m 1.464,-10.938 c -0.817,0.018 -1.637,0.168 -2.25,0.505 l 0,0 c -1.318,0.727 -1.564,1.614 -1.503,2.924 l 0,0 c 0.029,1.33 1.059,2.553 2.596,3.032 l 0,0 c 1.049,-0.132 1.954,-0.164 2.991,-0.315 l 0,0 c 0.618,-0.11 1.281,-0.224 1.865,-0.509 l 0,0 c 0.722,-0.354 1.072,-0.848 1.226,-1.543 l 0,0 c 0.185,-0.833 0.036,-1.411 -0.394,-2.123 l 0,0 c -0.383,-0.636 -1.147,-1.323 -2.293,-1.684 l 0,0 c -0.562,-0.178 -1.308,-0.289 -2.068,-0.289 l 0,0 c -0.057,0 -0.113,0 -0.17,0.002"
         id="path3457"
         inkscape:connector-curvature="0" /></clipPath><clipPath
       clipPathUnits="userSpaceOnUse"
       id="clipPath5283"><path
         inkscape:connector-curvature="0"
         d="m 0,50.4 0,-51.00089 246.84,0 0,51.00089"
         id="path5285" /></clipPath><clipPath
       clipPathUnits="userSpaceOnUse"
       id="clipPath5273"><path
         inkscape:connector-curvature="0"
         d="m 0,50.4 0,-51.00089 246.84,0 0,51.00089"
         id="path5275" /></clipPath><clipPath
       clipPathUnits="userSpaceOnUse"
       id="clipPath5263"><path
         inkscape:connector-curvature="0"
         d="m 0,50.4 0,-51.00089 246.84,0 0,51.00089"
         id="path5265" /></clipPath><clipPath
       clipPathUnits="userSpaceOnUse"
       id="clipPath5253"><path
         inkscape:connector-curvature="0"
         d="m 0,50.4 0,-51.00089 246.84,0 0,51.00089"
         id="path5255" /></clipPath><clipPath
       clipPathUnits="userSpaceOnUse"
       id="clipPath5243"><path
         inkscape:connector-curvature="0"
         d="m 0,50.4 0,-51.00089 246.84,0 0,51.00089"
         id="path5245" /></clipPath><clipPath
       clipPathUnits="userSpaceOnUse"
       id="clipPath5233"><path
         inkscape:connector-curvature="0"
         d="m 0,50.4 0,-51.00089 246.84,0 0,51.00089"
         id="path5235" /></clipPath><clipPath
       clipPathUnits="userSpaceOnUse"
       id="clipPath5223"><path
         inkscape:connector-curvature="0"
         d="m 0,50.4 0,-51.00089 246.84,0 0,51.00089"
         id="path5225" /></clipPath><clipPath
       clipPathUnits="userSpaceOnUse"
       id="clipPath5213"><path
         inkscape:connector-curvature="0"
         d="m 0,50.4 0,-51.00089 246.84,0 0,51.00089"
         id="path5215" /></clipPath><clipPath
       clipPathUnits="userSpaceOnUse"
       id="clipPath5203"><path
         inkscape:connector-curvature="0"
         d="m 0,50.4 0,-51.00089 246.84,0 0,51.00089"
         id="path5205" /></clipPath><clipPath
       clipPathUnits="userSpaceOnUse"
       id="clipPath5193"><path
         inkscape:connector-curvature="0"
         d="m 0,50.4 0,-51.00089 246.84,0 0,51.00089"
         id="path5195" /></clipPath><clipPath
       clipPathUnits="userSpaceOnUse"
       id="clipPath5183"><path
         inkscape:connector-curvature="0"
         d="m 0,50.4 0,-51.00089 246.84,0 0,51.00089"
         id="path5185" /></clipPath><clipPath
       clipPathUnits="userSpaceOnUse"
       id="clipPath5173"><path
         inkscape:connector-curvature="0"
         d="m 0,50.4 0,-51.00089 246.84,0 0,51.00089"
         id="path5175" /></clipPath><clipPath
       clipPathUnits="userSpaceOnUse"
       id="clipPath5163"><path
         inkscape:connector-curvature="0"
         d="m 0,50.4 0,-51.00089 246.84,0 0,51.00089"
         id="path5165" /></clipPath><clipPath
       clipPathUnits="userSpaceOnUse"
       id="clipPath5153"><path
         inkscape:connector-curvature="0"
         d="m 0,50.4 0,-51.00089 246.84,0 0,51.00089"
         id="path5155" /></clipPath><clipPath
       clipPathUnits="userSpaceOnUse"
       id="clipPath5143"><path
         inkscape:connector-curvature="0"
         d="m 0,50.4 0,-51.00089 246.84,0 0,51.00089"
         clip-rule="evenodd"
         id="path5145" /></clipPath></defs><sodipodi:namedview
     pagecolor="#ffffff"
     bordercolor="#666666"
     borderopacity="1"
     objecttolerance="10"
     gridtolerance="10"
     guidetolerance="10"
     inkscape:pageopacity="0"
     inkscape:pageshadow="2"
     inkscape:window-width="1053"
     inkscape:window-height="1038"
     id="namedview2987"
     showgrid="false"
     fit-margin-left="0.5"
     fit-margin-bottom="0.5"
     fit-margin-top="0.5"
     fit-margin-right="0.5"
     inkscape:zoom="0.29006226"
     inkscape:cx="749.38522"
     inkscape:cy="212.99338"
     inkscape:window-x="860"
     inkscape:window-y="-21"
     inkscape:window-maximized="0"
     inkscape:current-layer="g2993" /><g
     id="g2993"
     inkscape:groupmode="layer"
     inkscape:label="happy_reward_jun10"
     transform="matrix(1.25,0,0,-1.25,-417.17315,865.85316)"><g
       id="g3451"><g
         id="g3453"
         clip-path="url(#clipPath3455)"><g
           id="g3459"
           transform="translate(383.889,644.7502)"><path
             d="m 0,0 c 1.911,-0.34 3.962,-0.692 5.763,-1.573 2.236,-1.095 3.316,-2.619 3.793,-4.769 0.571,-2.574 0.111,-4.361 -1.219,-6.564 -1.184,-1.962 -3.545,-4.086 -7.087,-5.204 -3.735,-1.18 -10.082,-1.411 -13.869,0.676 -4.078,2.244 -4.835,4.989 -4.65,9.037 0.091,4.111 3.275,7.891 8.025,9.369 C -6.003,0.568 -3.203,0.468 0,0 m 0.06,31.685 c 0,-2.04 0.014,-3.887 0.014,-4.641 0,-10.77 -1.33,-14.883 -5.944,-14.883 -3.698,0 -5.87,2.232 -5.87,14.519 0,0.525 0.004,3.049 0.004,4.609 0,13.451 1.981,16.348 5.95,16.348 4.326,0 5.846,-2.863 5.846,-15.952"
             style="fill:#ed1c24;fill-opacity:1;fill-rule:nonzero;stroke:none"
             id="path3461"
             inkscape:connector-curvature="0" /></g></g></g><g
       id="g5139"
       style="fill:#000000"
       transform="matrix(3.2377249,0,0,3.2754307,334.13852,527.20082)"><g
         id="g5141"
         clip-path="url(#clipPath5143)"
         style="fill:#000000"><path
           d="m 0,50.55 0,0 0,-50.32466 17.932,0 0,8.18716 -9.0037,0 0,15.2475 7.1277,0 0,8.263 -7.1277,0 0,10.44 9.0037,0 0,8.187 -17.932,0 z"
           style="fill:#000000;fill-opacity:1;fill-rule:nonzero;stroke:none"
           id="path5147"
           inkscape:connector-curvature="0" /></g></g><g
       id="g5149"
       style="fill:#000000"
       transform="matrix(3.2377249,0,0,3.2754307,334.13852,527.20082)"><g
         id="g5151"
         clip-path="url(#clipPath5153)"
         style="fill:#000000"><path
           d="m 19.282,38.457 0,0 8.103,0 0,-2.028 c 1.05,1.502 3.001,2.479 5.552,2.479 5.177,0 5.852,-2.253 5.852,-8.788 l 0,-29.89466 -8.178,0 0,28.54266 c 0,1.953 -0.375,2.253 -1.425,2.253 -1.126,0 -1.801,-0.225 -1.801,-2.253 l 0,-28.54266 -8.103,0 0,38.23166 z"
           style="fill:#000000;fill-opacity:1;fill-rule:nonzero;stroke:none"
           id="path5157"
           inkscape:connector-curvature="0" /></g></g><g
       id="g5159"
       style="fill:#000000"
       transform="matrix(3.2377249,0,0,3.2754307,334.13852,527.20082)"><g
         id="g5161"
         clip-path="url(#clipPath5163)"
         style="fill:#000000"><path
           d="m 40.065,38.457 0,0 2.175,0 0,9.314 8.028,0 0,-9.314 2.776,0 0,-7.661 -2.776,0 0,-20.13 c 0,-2.4037 0.676,-2.7793 2.401,-2.7793 l 0.375,0 0,-7.66136 -2.851,0 c -5.552,0 -7.953,2.25336 -7.953,8.56276 l 0,22.0079 -2.175,0 0,7.661 z"
           style="fill:#000000;fill-opacity:1;fill-rule:nonzero;stroke:none"
           id="path5167"
           inkscape:connector-curvature="0" /></g></g><g
       id="g5169"
       style="fill:#000000"
       transform="matrix(3.2377249,0,0,3.2754307,334.13852,527.20082)"><g
         id="g5171"
         clip-path="url(#clipPath5173)"
         style="fill:#000000"><path
           d="m 63.998,7.63e-7 0,0 C 71.501,7.63e-7 72.927,3.7556 73.077,11.793 l -7.503,0.375 c 0,-4.2813 -0.6,-4.8822 -1.876,-4.8822 -1.275,0 -1.875,0.8263 -1.875,4.2812 l 0,4.582 11.329,0 0,11.117 c 0,8.262 -2.176,11.642 -9.154,11.642 -7.127,0 -9.903,-2.704 -9.903,-11.718 l 0,-15.623 C 54.095,3.5303 56.346,7.63e-7 63.998,7.63e-7 z M 61.823,27.266 l 0,0 c 0,3.304 0.6,4.056 1.95,4.056 1.426,0 1.876,-0.752 1.876,-3.981 l 0,-4.207 -3.826,0 0,4.132 z"
           style="fill:#000000;fill-opacity:1;fill-rule:nonzero;stroke:none"
           id="path5177"
           inkscape:connector-curvature="0" /></g></g><g
       id="g5179"
       style="fill:#000000"
       transform="matrix(3.2377249,0,0,3.2754307,334.13852,527.20082)"><g
         id="g5181"
         clip-path="url(#clipPath5183)"
         style="fill:#000000"><path
           d="m 75.027,38.457 0,0 8.103,0 0,-2.253 c 0.901,1.352 2.326,2.178 3.302,2.253 l 0,-7.736 C 84.256,30.57 83.13,30.045 83.13,24.712 l 0,-24.48666 -8.103,0 0,38.23166 z"
           style="fill:#000000;fill-opacity:1;fill-rule:nonzero;stroke:none"
           id="path5187"
           inkscape:connector-curvature="0" /></g></g><g
       id="g5189"
       style="fill:#000000"
       transform="matrix(3.2377249,0,0,3.2754307,334.13852,527.20082)"><g
         id="g5191"
         clip-path="url(#clipPath5193)"
         style="fill:#000000"><path
           d="m 87.182,38.457 0,0 1.876,0 0,9.314 8.027,0 0,-9.314 2.852,0 0,-7.811 -2.852,0 0,-19.98 c 0,-2.4037 0.676,-2.7793 2.401,-2.7793 l 0.451,0 0,-7.66136 -2.927,0 c -5.552,0 -7.952,2.25336 -7.952,8.56276 l 0,21.8579 -1.876,0 0,7.811 z"
           style="fill:#000000;fill-opacity:1;fill-rule:nonzero;stroke:none"
           id="path5197"
           inkscape:connector-curvature="0" /></g></g><g
       id="g5199"
       style="fill:#000000"
       transform="matrix(3.2377249,0,0,3.2754307,334.13852,527.20082)"><g
         id="g5201"
         clip-path="url(#clipPath5203)"
         style="fill:#000000"><path
           d="m 106.54,0.15023 0,0 c 3.53,0 4.8,0.45066 5.55,1.95287 l 0,-1.87776 7.5,0 0,29.66866 c 0,6.836 -1.42,9.014 -8.85,9.014 -6.9,0 -9.75,-3.155 -10.2,-9.69 l 7.72,-0.826 c 0.15,2.028 0.3,2.93 2.11,2.93 1.35,0 1.57,-0.526 1.57,-2.78 l 0,-1.352 c -9.38,-2.478 -11.33,-6.234 -11.33,-16.149 0,-7.8863 0.68,-10.89077 5.93,-10.89077 z m 3.38,6.91027 0,0 c -1.36,0 -1.58,1.2018 -1.58,4.5815 0,5.634 0.82,6.76 3.6,7.812 l 0,-8.938 c 0,-2.9297 -0.45,-3.4555 -2.02,-3.4555 z"
           style="fill:#000000;fill-opacity:1;fill-rule:nonzero;stroke:none"
           id="path5207"
           inkscape:connector-curvature="0" /></g></g><g
       id="g5209"
       style="fill:#000000"
       transform="matrix(3.2377249,0,0,3.2754307,334.13852,527.20082)"><g
         id="g5211"
         clip-path="url(#clipPath5213)"
         style="fill:#000000"><path
           d="m 121.92,47.771 0,0 7.95,0 0,-8.112 -7.95,0 0,8.112 z m 0,-9.314 0,0 7.95,0 0,-38.23166 -7.95,0 0,38.23166 z"
           style="fill:#000000;fill-opacity:1;fill-rule:nonzero;stroke:none"
           id="path5217"
           inkscape:connector-curvature="0" /></g></g><g
       id="g5219"
       style="fill:#000000"
       transform="matrix(3.2377249,0,0,3.2754307,334.13852,527.20082)"><g
         id="g5221"
         clip-path="url(#clipPath5223)"
         style="fill:#000000"><path
           d="m 132.35,38.457 0,0 8.1,0 0,-2.028 c 1.05,1.502 3,2.479 5.55,2.479 5.18,0 5.78,-2.253 5.78,-8.788 l 0,-29.89466 -8.1,0 0,28.54266 c 0,1.953 -0.38,2.253 -1.43,2.253 -1.12,0 -1.8,-0.225 -1.8,-2.253 l 0,-28.54266 -8.1,0 0,38.23166 z"
           style="fill:#000000;fill-opacity:1;fill-rule:nonzero;stroke:none"
           id="path5227"
           inkscape:connector-curvature="0" /></g></g><g
       id="g5229"
       style="fill:#000000"
       transform="matrix(3.2377249,0,0,3.2754307,334.13852,527.20082)"><g
         id="g5231"
         clip-path="url(#clipPath5233)"
         style="fill:#000000"><path
           d="m 176.16,28.768 0,0 c 0,1.953 -0.3,2.253 -1.35,2.253 -1.35,0 -1.65,-0.526 -1.65,-2.253 l 0,-28.54266 -8.02,0 0,28.54266 c 0,1.953 -0.3,2.253 -1.36,2.253 -1.12,0 -1.65,-0.225 -1.65,-2.253 l 0,-28.54266 -8.02,0 0,38.23166 8.02,0 0,-2.028 c 1.05,1.502 2.78,2.479 5.33,2.479 3.23,0 4.58,-0.901 5.18,-3.23 1.12,1.803 2.77,3.23 5.7,3.23 5.18,0 5.85,-1.953 5.85,-8.788 l 0,-29.89466 -8.03,0 0,28.54266 z"
           style="fill:#000000;fill-opacity:1;fill-rule:nonzero;stroke:none"
           id="path5237"
           inkscape:connector-curvature="0" /></g></g><g
       id="g5239"
       style="fill:#000000"
       transform="matrix(3.2377249,0,0,3.2754307,334.13852,527.20082)"><g
         id="g5241"
         clip-path="url(#clipPath5243)"
         style="fill:#000000"><path
           d="m 196.05,7.63e-7 0,0 c 7.5,0 8.92,3.755599237 9.15,11.792999237 l -7.58,0.375 c 0,-4.2813 -0.6,-4.8822 -1.87,-4.8822 -1.28,0 -1.88,0.8263 -1.88,4.2812 l 0,4.582 11.4,0 0,11.117 c 0,8.262 -2.17,11.642 -9.22,11.642 -7.13,0 -9.91,-2.704 -9.91,-11.718 l 0,-15.623 C 186.14,3.5303 188.39,7.63e-7 196.05,7.63e-7 z M 193.87,27.266 l 0,0 c 0,3.304 0.6,4.056 1.95,4.056 1.43,0 1.88,-0.752 1.88,-3.981 l 0,-4.207 -3.83,0 0,4.132 z"
           style="fill:#000000;fill-opacity:1;fill-rule:nonzero;stroke:none"
           id="path5247"
           inkscape:connector-curvature="0" /></g></g><g
       id="g5249"
       style="fill:#000000"
       transform="matrix(3.2377249,0,0,3.2754307,334.13852,527.20082)"><g
         id="g5251"
         clip-path="url(#clipPath5253)"
         style="fill:#000000"><path
           d="m 207.08,38.457 0,0 8.17,0 0,-2.028 c 1.05,1.502 2.93,2.479 5.56,2.479 5.1,0 5.77,-2.253 5.77,-8.788 l 0,-29.89466 -8.18,0 0,28.54266 c 0,1.953 -0.37,2.253 -1.42,2.253 -1.13,0 -1.73,-0.225 -1.73,-2.253 l 0,-28.54266 -8.17,0 0,38.23166 z"
           style="fill:#000000;fill-opacity:1;fill-rule:nonzero;stroke:none"
           id="path5257"
           inkscape:connector-curvature="0" /></g></g><g
       id="g5259"
       style="fill:#000000"
       transform="matrix(3.2377249,0,0,3.2754307,334.13852,527.20082)"><g
         id="g5261"
         clip-path="url(#clipPath5263)"
         style="fill:#000000"><path
           d="m 227.86,38.457 0,0 2.17,0 0,9.314 8.03,0 0,-9.314 2.85,0 0,-7.661 -2.85,0 0,-20.13 c 0,-2.4037 0.68,-2.7793 2.4,-2.7793 l 0.45,0 0,-7.66136 -2.92,0 c -5.56,0 -7.96,2.25336 -7.96,8.56276 l 0,22.0079 -2.17,0 0,7.661 z"
           style="fill:#000000;fill-opacity:1;fill-rule:nonzero;stroke:none"
           id="path5267"
           inkscape:connector-curvature="0" /></g></g><g
       id="g5269"
       transform="matrix(3.2377249,0,0,3.2754307,334.13852,527.20082)"><g
         id="g5271"
         clip-path="url(#clipPath5273)"><path
           d="m 220.81,10.891 0,0 1.35,0 0,-6.835 2.17,0 0,-1.2017 -3.52,0 0,8.0367 z m 12.83,-5.0323 0,0 -1.66,5.0323 1.43,0 0.9,-3.3047 0.98,3.3047 1.27,0 -1.57,-4.9572 0,-3.0795 -1.35,0 0,3.0044 z m -24.39,5.0323 0,0 1.35,0 0,-2.6287 1.43,2.6287 1.35,0 -1.5,-2.6287 1.65,-5.408 -1.43,0 -1.2,3.9058 -0.3,-0.5258 0,-3.38 -1.35,0 0,8.0367 z m -10.28,0 0,0 3.68,0 0,-1.2016 -2.25,0 0,-1.8027 1.8,0 0,-1.1266 -1.8,0 0,-2.7041 2.25,0 0,-1.2017 -3.68,0 0,8.0367 z m -9.68,0 0,0 3.61,0 0,-1.2016 -2.26,0 0,-1.8027 1.88,0 0,-1.1266 -1.88,0 0,-2.7041 2.26,0 0,-1.2017 -3.61,0 0,8.0367 z m -12.45,0 0,0 1.35,0 0.45,-3.4549 0.23,-1.5774 0.3,1.5774 0.52,3.4549 1.2,0 0.6,-3.4549 0.23,-1.5774 0.22,1.5774 0.45,3.4549 1.35,0 -1.35,-8.0367 -1.35,0 -0.75,5.1075 -0.82,-5.1075 -1.35,0 -1.28,8.0367 z"
           style="fill:#fefefe;fill-opacity:1;fill-rule:nonzero;stroke:none"
           id="path5277"
           inkscape:connector-curvature="0" /></g></g><g
       id="g5279"
       style="fill:#000000"
       transform="matrix(3.2377249,0,0,3.2754307,334.13852,527.20082)"><g
         id="g5281"
         clip-path="url(#clipPath5283)"
         style="fill:#000000"><path
           d="m 242.41,44.767 0,0 c 0.08,-0.226 0.3,-0.526 0.45,-0.752 0.23,-0.15 0.53,-0.375 0.75,-0.45 0.3,-0.15 0.6,-0.15 0.98,-0.15 0.3,0 0.6,0 0.9,0.15 0.3,0.075 0.6,0.3 0.75,0.45 0.23,0.226 0.38,0.526 0.53,0.752 0.15,0.3 0.22,0.676 0.22,0.976 0,0.376 -0.07,0.676 -0.22,0.977 -0.15,0.3 -0.3,0.525 -0.53,0.751 -0.15,0.225 -0.45,0.375 -0.75,0.45 -0.3,0.151 -0.6,0.226 -0.9,0.226 -0.38,0 -0.68,-0.075 -0.98,-0.226 -0.22,-0.075 -0.52,-0.225 -0.75,-0.45 -0.15,-0.226 -0.37,-0.451 -0.45,-0.751 -0.15,-0.301 -0.22,-0.601 -0.22,-0.977 0,-0.3 0.07,-0.676 0.22,-0.976 z m 0.45,1.727 0,0 c 0.08,0.226 0.23,0.451 0.38,0.601 0.15,0.15 0.37,0.301 0.6,0.451 0.22,0.075 0.45,0.15 0.75,0.15 0.3,0 0.52,-0.075 0.75,-0.15 0.22,-0.15 0.45,-0.301 0.6,-0.451 0.15,-0.15 0.3,-0.375 0.37,-0.601 0.08,-0.225 0.16,-0.45 0.16,-0.751 0,-0.225 -0.08,-0.526 -0.16,-0.751 -0.07,-0.225 -0.22,-0.451 -0.37,-0.601 -0.15,-0.15 -0.38,-0.3 -0.6,-0.376 -0.23,-0.15 -0.45,-0.15 -0.75,-0.15 -0.3,0 -0.53,0 -0.75,0.15 -0.23,0.076 -0.45,0.226 -0.6,0.376 -0.15,0.15 -0.3,0.376 -0.38,0.601 -0.07,0.225 -0.15,0.526 -0.15,0.751 0,0.301 0.08,0.526 0.15,0.751 z m 2.1,-0.901 0,0 c 0.15,0 0.3,0.075 0.38,0.225 0.15,0.075 0.22,0.226 0.22,0.451 0,0.15 -0.07,0.225 -0.07,0.3 -0.08,0.151 -0.15,0.226 -0.23,0.226 -0.15,0.075 -0.22,0.15 -0.37,0.15 -0.08,0 -0.23,0.075 -0.38,0.075 l -0.82,0 0,-2.479 0.52,0 0,0.977 0.23,0 0.6,-0.977 0.52,0 -0.6,0.977 0,0.075 z m -0.37,0.976 0,0 c 0.15,0 0.3,0 0.37,-0.075 0,-0.075 0.08,-0.15 0.08,-0.225 0,-0.15 -0.08,-0.225 -0.15,-0.301 -0.08,-0.075 -0.23,-0.075 -0.45,-0.075 l -0.23,0 0,0.676 0.38,0 z"
           style="fill:#000000;fill-opacity:1;fill-rule:nonzero;stroke:none"
           id="path5287"
           inkscape:connector-curvature="0" /></g></g></g></svg>