<svg xmlns="http://www.w3.org/2000/svg" role="graphics-symbol" class="glyph -rating" width="51" height="12" viewBox="0 0 51 12" aria-label="★★★★"> <title>★★★★</title><path transform="translate(0, 0)" fill-rule="evenodd" d="M6.76.6C6.47-.21 5.5-.18 5.24.6L4.21 4H.92c-.97 0-1.25.92-.47 1.5l2.66 2.04-1 3.16c-.3.96.44 1.53 1.22.94L6 9.62l2.67 2.02c.78.59 1.53.02 1.23-.94l-1-3.16 2.65-2.03c.78-.6.5-1.51-.47-1.51h-3.3z"></path><path transform="translate(13, 0)" fill-rule="evenodd" d="M6.76.6C6.47-.21 5.5-.18 5.24.6L4.21 4H.92c-.97 0-1.25.92-.47 1.5l2.66 2.04-1 3.16c-.3.96.44 1.53 1.22.94L6 9.62l2.67 2.02c.78.59 1.53.02 1.23-.94l-1-3.16 2.65-2.03c.78-.6.5-1.51-.47-1.51h-3.3z"></path><path transform="translate(26, 0)" fill-rule="evenodd" d="M6.76.6C6.47-.21 5.5-.18 5.24.6L4.21 4H.92c-.97 0-1.25.92-.47 1.5l2.66 2.04-1 3.16c-.3.96.44 1.53 1.22.94L6 9.62l2.67 2.02c.78.59 1.53.02 1.23-.94l-1-3.16 2.65-2.03c.78-.6.5-1.51-.47-1.51h-3.3z"></path><path transform="translate(39, 0)" fill-rule="evenodd" d="M6.76.6C6.47-.21 5.5-.18 5.24.6L4.21 4H.92c-.97 0-1.25.92-.47 1.5l2.66 2.04-1 3.16c-.3.96.44 1.53 1.22.94L6 9.62l2.67 2.02c.78.59 1.53.02 1.23-.94l-1-3.16 2.65-2.03c.78-.6.5-1.51-.47-1.51h-3.3z"></path></svg>