<?xml version="1.0" encoding="UTF-8"?>
<svg version="1.1" xmlns="http://www.w3.org/2000/svg" width="269" height="148">
<path d="M0 0 C88.77 0 177.54 0 269 0 C269 48.84 269 97.68 269 148 C180.23 148 91.46 148 0 148 C0 99.16 0 50.32 0 0 Z " fill="#F3C400" transform="translate(0,0)"/>
<path d="M0 0 C10.23 0 20.46 0 31 0 C32.375 11.3125 32.375 11.3125 32.79443359 14.8059082 C33.6310191 21.5880204 34.69827179 28.2916715 36 35 C37.81275602 30.9993205 38.51525942 27.29713454 39.0703125 22.94921875 C39.30645264 21.14070435 39.30645264 21.14070435 39.54736328 19.2956543 C39.7379834 17.77496338 39.92860352 16.25427246 40.125 14.6875 C40.74375 9.840625 41.3625 4.99375 42 0 C51.9 0 61.8 0 72 0 C72 29.7 72 59.4 72 90 C65.4 90 58.8 90 52 90 C51.67 73.17 51.34 56.34 51 39 C48.73754755 54.70624348 48.73754755 54.70624348 46.48266602 70.41357422 C46.19835473 72.37731852 45.91378593 74.34102557 45.62890625 76.3046875 C45.48287964 77.33086182 45.33685303 78.35703613 45.18640137 79.41430664 C45.04440308 80.38859619 44.90240479 81.36288574 44.75610352 82.36669922 C44.63396988 83.21497284 44.51183624 84.06324646 44.38600159 84.93722534 C44 87 44 87 43 89 C38.71 89 34.42 89 30 89 C27.73207403 78.22809087 25.91702147 67.45233908 24.3125 56.5625 C23.549375 51.426875 22.78625 46.29125 22 41 C21.67 57.17 21.34 73.34 21 90 C14.07 90 7.14 90 0 90 C0 60.3 0 30.6 0 0 Z " fill="#050400" transform="translate(54,29)"/>
<path d="M0 0 C38.67741935 0 38.67741935 0 47.4375 4.9375 C53.43228246 12.10199611 52.29861272 23.79733616 52.265625 32.73828125 C52.26849518 34.48578926 52.26849518 34.48578926 52.27142334 36.26860046 C52.27277427 38.70974954 52.26915487 41.15090606 52.26074219 43.59204102 C52.24997838 47.3199878 52.26069997 51.0474581 52.2734375 54.77539062 C52.27211666 57.15885522 52.26955583 59.54231953 52.265625 61.92578125 C52.26967346 63.03319168 52.27372192 64.14060211 52.27789307 65.28157043 C52.19896337 78.32558509 52.19896337 78.32558509 47.6875 83.8125 C34.71108194 94.37470075 14.8843338 88 0 88 C0 58.96 0 29.92 0 0 Z " fill="#020200" transform="translate(135,30)"/>
<path d="M0 0 C6.93 0 13.86 0 21 0 C21.33 9.24 21.66 18.48 22 28 C24.97 25.525 24.97 25.525 28 23 C33.38407334 21.20530889 38.34399488 21.50319846 43.75 23.125 C47.40243086 25.23217165 50.00495751 27.28602697 52 31 C52.6901811 34.57305892 52.63082041 38.0623285 52.55859375 41.69140625 C52.55509666 43.22570534 52.55509666 43.22570534 52.55152893 44.79100037 C52.54181173 46.94693375 52.5200716 49.10284238 52.48706055 51.25854492 C52.43761385 54.55491009 52.42557491 57.84978158 52.41992188 61.14648438 C52.40583621 63.24480751 52.38963193 65.34311772 52.37109375 67.44140625 C52.36573105 68.42484512 52.36036835 69.408284 52.35484314 70.42152405 C52.24675867 76.64960639 51.87573986 80.82008611 47.6875 85.6875 C43.37728266 89.39629166 39.8691447 90.45867374 34.125 90.328125 C29.18559984 89.56542351 25.08719981 86.72479987 21 84 C20.67 85.65 20.34 87.3 20 89 C13.4 89 6.8 89 0 89 C0 59.63 0 30.26 0 0 Z " fill="#030200" transform="translate(196,29)"/>
<path d="M0 0 C7.59 0 15.18 0 23 0 C23 29.37 23 58.74 23 89 C15.41 89 7.82 89 0 89 C0 59.63 0 30.26 0 0 Z " fill="#030300" transform="translate(23,30)"/>
<path d="M0 0 C1.65 0 3.3 0 5 0 C7.55640883 2.55640883 7.25270697 3.49733847 7.25878906 7.04467773 C7.26509338 8.09594345 7.27139771 9.14720917 7.27789307 10.23033142 C7.2738446 11.36990799 7.26979614 12.50948456 7.265625 13.68359375 C7.26753845 14.85003922 7.2694519 16.01648468 7.27142334 17.21827698 C7.27278637 19.68889583 7.26908178 22.1595218 7.26074219 24.63012695 C7.25005419 28.41829492 7.26062887 32.20598759 7.2734375 35.99414062 C7.27211574 38.39062605 7.269553 40.78711118 7.265625 43.18359375 C7.26967346 44.32114609 7.27372192 45.45869843 7.27789307 46.63072205 C7.27158875 47.68513992 7.26528442 48.7395578 7.25878906 49.82592773 C7.25719788 50.7547728 7.25560669 51.68361786 7.25396729 52.64060974 C7 55 7 55 5 58 C3.35 58 1.7 58 0 58 C0 38.86 0 19.72 0 0 Z " fill="#F7C800" transform="translate(158,45)"/>
<path d="M0 0 C2.5625 0.1875 2.5625 0.1875 4.5625 2.1875 C4.76240227 5.03290142 4.84226976 7.77887784 4.828125 10.625 C4.83003845 11.46087646 4.8319519 12.29675293 4.83392334 13.15795898 C4.83528536 14.92659811 4.83158776 16.69524723 4.82324219 18.46386719 C4.81254275 21.17665994 4.82313676 23.88879044 4.8359375 26.6015625 C4.83461591 28.3177098 4.83205352 30.03385669 4.828125 31.75 C4.83217346 32.56460693 4.83622192 33.37921387 4.84039307 34.21850586 C4.79241928 39.95758072 4.79241928 39.95758072 2.5625 42.1875 C0 42.375 0 42.375 -2.4375 42.1875 C-4.33373202 40.29126798 -3.56647626 37.52379641 -3.57644653 35.0012207 C-3.5744223 34.13456787 -3.57239807 33.26791504 -3.5703125 32.375 C-3.57126923 31.49094482 -3.57222595 30.60688965 -3.57321167 29.69604492 C-3.57389351 27.82307871 -3.57203893 25.95011014 -3.56787109 24.07714844 C-3.56252289 21.19981612 -3.56781593 18.32263992 -3.57421875 15.4453125 C-3.57355797 13.63020799 -3.57227681 11.81510357 -3.5703125 10 C-3.57233673 9.13334717 -3.57436096 8.26669434 -3.57644653 7.3737793 C-3.54838109 0.27295239 -3.54838109 0.27295239 0 0 Z " fill="#EABE00" transform="translate(221.4375,63.8125)"/>
<path d="M0 0 C0.33 0 0.66 0 1 0 C1 19.14 1 38.28 1 58 C0.67 58 0.34 58 0 58 C-0.33 46.12 -0.66 34.24 -1 22 C-1.66 22.66 -2.32 23.32 -3 24 C-2.68860949 21.31236733 -2.37591843 18.62489631 -2.0625 15.9375 C-1.97548828 15.18533203 -1.88847656 14.43316406 -1.79882812 13.65820312 C-1.26536361 9.09411781 -0.67013702 4.54606466 0 0 Z " fill="#DAB100" transform="translate(105,61)"/>
</svg>
