<svg version="1.1" xmlns="http://www.w3.org/2000/svg" style="display: block;" viewBox="0 0 2048 2048" width="1024" height="1024" preserveAspectRatio="none">
<path transform="translate(0,0)" fill="rgb(252,109,1)" d="M 659.594 341.453 C 800.093 335.194 930.893 405.843 1001.5 527.221 C 1008.75 539.68 1017.63 552.522 1023.55 565.646 C 1105.91 415.494 1223.36 334.394 1398.81 341.811 C 1649.56 352.412 1805.97 566.788 1790.92 807.813 C 1778.99 998.919 1653.73 1145.39 1524.46 1274.89 C 1467.13 1332.59 1407.76 1385.43 1346.95 1439.29 C 1275.67 1501.81 1203.16 1562.91 1129.47 1622.57 L 1062.86 1676.36 C 1050.9 1685.97 1036.39 1698.23 1024.04 1706.95 C 1015.41 1701.63 995.407 1684.74 986.707 1677.71 L 924.089 1627.28 C 829.191 1550.23 736.089 1471 644.86 1389.64 C 595.426 1345.01 547.268 1298.99 500.445 1251.63 C 378.806 1127.03 265.754 983.316 256.941 801.962 C 248.177 621.633 335.474 443.751 507.551 373.174 C 558.157 352.418 605.128 344.196 659.594 341.453 z"/>
</svg>