<svg version="1.1" xmlns="http://www.w3.org/2000/svg" style="display: block;" viewBox="0 0 2048 2048" width="1024" height="1024" preserveAspectRatio="none">
<path transform="translate(0,0)" fill="rgb(60,176,232)" d="M 742.987 1073.39 C 745.212 1073.16 747.276 1073.95 749.013 1075.32 C 768.157 1090.42 786.665 1103.01 807.687 1115.43 C 852.782 1142.43 902.606 1160.61 954.499 1168.97 C 1053.48 1184.71 1154.85 1165.9 1241.6 1115.71 C 1266.62 1101.04 1278.74 1090.46 1301.24 1074.07 C 1319.83 1074.5 1342.78 1079.36 1361.21 1083.24 C 1512.51 1115.13 1685.77 1202.9 1730.9 1362.84 C 1736.58 1382.97 1740.13 1404.28 1740.31 1424.93 L 1740.25 1636.51 L 1740.31 1698.86 C 1740.32 1716.7 1740.91 1734.67 1737.63 1752.32 C 1729.99 1793.64 1691.48 1832.37 1650.21 1840.49 C 1626.49 1845.16 1589.1 1843.03 1563.79 1843.01 L 1408.25 1842.94 L 725.155 1842.9 L 512.283 1842.84 L 450.1 1843.03 C 413.903 1843.21 387.267 1844.52 356.183 1821.97 C 330.447 1803.14 313.232 1774.87 308.317 1743.36 C 306.159 1728.91 306.909 1709.04 306.995 1693.98 L 307.084 1629.66 L 306.95 1493.57 C 306.921 1457.33 304.9 1415.31 312.335 1380.35 C 321.553 1338.82 339.55 1299.75 365.118 1265.75 C 398.715 1221 431.677 1195.33 478.306 1165.81 C 559.448 1114.43 648.162 1086.94 742.987 1073.39 z"/>
<path transform="translate(0,0)" fill="rgb(60,176,232)" d="M 1000.92 206.051 C 1237.78 193.226 1440 375.279 1452.03 612.185 C 1464.06 849.09 1281.33 1050.69 1044.38 1061.93 C 808.559 1073.11 608.118 891.435 596.144 655.649 C 584.17 419.863 765.175 218.814 1000.92 206.051 z"/>
</svg>