<svg version="1.1" xmlns="http://www.w3.org/2000/svg" style="display: block;" viewBox="0 0 2048 2048" width="1024" height="1024" preserveAspectRatio="none">
<path transform="translate(0,0)" fill="rgb(254,254,254)" d="M 1653.1 355.732 C 1658.74 358.75 1685.59 387.741 1691.82 394.354 C 1638.06 445.124 1581.3 504.218 1528.76 556.851 L 1268.7 817.205 L 1135.43 950.483 L 1090.42 995.606 C 1081.53 1004.62 1071.08 1014.71 1063.28 1024.52 C 1101.9 1065.25 1144.13 1105.38 1183.77 1145.44 L 1530.43 1492.08 L 1640.91 1602.36 C 1656.99 1618.45 1675.83 1636 1691.09 1652.47 C 1678.5 1664.26 1664.69 1678.95 1652.42 1691.36 C 1632.68 1672.62 1610.78 1649.2 1591.48 1629.6 L 1494.03 1532.12 L 1023.67 1062.34 L 569.885 1516.13 L 443.906 1642.07 C 431.547 1654.34 407.536 1680.84 395.263 1690.61 C 385.867 1681.5 363.748 1660.82 357.139 1651.44 C 371.097 1636.63 389.011 1620.42 403.819 1605.67 L 511.899 1497.58 L 832.761 1176.78 L 926.367 1083.38 C 946.238 1063.63 966.894 1044.25 985.643 1023.53 C 971.358 1008.43 954.16 992.232 939.304 977.328 C 898.294 935.893 857.051 894.69 815.579 853.719 L 355.806 394.536 C 367.468 383.188 383.043 365.742 394.21 356.064 C 415.579 374.835 446.626 408.992 467.695 430.011 C 519.723 481.323 571.41 532.979 622.755 584.974 L 1024.1 985.831 C 1046.52 965.579 1077.77 931.889 1100.1 909.514 L 1251.02 759.125 L 1478.22 532.034 C 1537.26 474.015 1595.56 415.243 1653.1 355.732 z"/>
</svg>