<svg version="1.1" xmlns="http://www.w3.org/2000/svg" style="display: block;" viewBox="760 600 530 850" width="1024" height="1024" preserveAspectRatio="xMidYMid meet">
<path transform="translate(0,0)" fill="currentColor" d="M 1018.99 276.904 C 1037.13 276.747 1032.09 298.658 1032.04 312.127 C 1054.51 312.221 1076.98 312.193 1099.45 312.045 C 1108.93 312.001 1139.7 310.099 1146.63 315.863 C 1150.74 325.303 1148.98 405.651 1148.95 421.772 C 1153.84 421.677 1167.59 420.595 1168.5 426.772 C 1170.46 440.082 1172.82 497.929 1167.65 507.514 C 1161.45 512.122 1156.89 511.14 1148.95 511.157 C 1149.87 580.058 1148.99 650.962 1148.99 720.029 C 1156.17 719.904 1175.05 717.736 1180.29 722.052 C 1188.96 729.181 1198.12 817.851 1203.64 835.768 C 1207.04 846.82 1220.7 857.92 1227.96 867.105 C 1261.27 909.507 1280.69 961.154 1283.58 1015 C 1285.98 1070.48 1270.56 1125.27 1239.57 1171.34 C 1228.03 1188.28 1218.09 1199.13 1204.48 1214.16 C 1200.81 1232.79 1187.63 1324.51 1181.21 1334.29 C 1173.88 1338.38 1157.79 1336.91 1148.78 1336.86 C 1149.44 1364.15 1148.97 1393.53 1149.01 1420.93 L 1149.09 1583.41 L 1149.08 1681.35 C 1149.07 1697.51 1150.05 1714.43 1148.76 1730.51 C 1148.53 1733.46 1147.91 1736.22 1145.54 1738.27 C 1139.44 1743.55 1044.34 1741.05 1029.5 1741.02 C 1011.67 1741.04 908.842 1743.04 898.165 1738.92 C 893.017 1730.18 894.719 1690.28 894.74 1678.79 L 894.902 1594.28 L 894.886 1337.03 C 886.201 1337.16 870.872 1338.45 862.993 1334.5 C 861.21 1333.61 858.445 1324.48 858.011 1322.2 C 850.79 1284.26 846.698 1244.59 837.422 1207.11 C 793.477 1163.06 767.958 1100.85 765.166 1039 C 762.717 984.718 776.919 928.099 808.314 883.349 C 814.491 874.544 834.684 852.952 837.837 845.209 C 841.506 836.195 842.403 824.607 844.075 815.027 C 846.019 803.892 856.764 728.355 862.261 723.584 C 868.961 717.769 886.225 720.052 895.005 720.164 L 894.847 511.036 C 889.811 511.165 879.856 512.339 876.267 508.066 C 873.403 504.656 873.359 495.617 873.273 491.179 C 873.088 481.734 871.084 430.016 876.39 425.132 C 881.506 420.424 888.456 421.579 894.88 421.711 C 894.901 409.034 892.941 319.803 897.244 315.798 C 899.689 313.522 903.617 312.798 906.827 312.374 C 918.158 310.878 930.556 311.882 942.031 311.895 L 1011.99 311.996 C 1011.98 299.971 1008 284.073 1018.99 276.904 z M 1037.49 1267.12 C 1170.23 1259.78 1271.82 1146.13 1264.3 1013.4 C 1256.77 880.67 1142.98 779.231 1010.26 786.942 C 877.803 794.637 776.607 908.159 784.118 1040.63 C 791.629 1173.09 905.009 1274.45 1037.49 1267.12 z M 1129.13 1698.15 L 1129.06 1263.86 C 1068.17 1295.61 974.74 1294.31 914.035 1262.44 L 914.12 1721.55 L 1129.09 1721.34 L 1129.13 1698.15 z M 914.325 790.996 C 980.404 762.224 1044.89 759.373 1113.25 782.863 C 1118.27 784.874 1124.32 787.13 1129.16 789.339 L 1129.22 511.071 L 914.036 510.917 L 914.219 696.334 C 914.244 727.232 914.956 760.417 914.325 790.996 z M 1150.04 1317.37 L 1167.42 1317.47 C 1170.3 1293.87 1179.1 1256.46 1180.5 1235.84 L 1179.57 1234.85 C 1169.53 1241.84 1159.98 1248.19 1148.93 1253.63 C 1148.91 1261.94 1148.03 1314.82 1150.04 1317.37 z M 861.911 824.066 L 872.976 816.097 C 879.931 811.473 887.804 805.961 894.992 801.909 L 894.941 740.002 L 876.524 740.032 C 873.857 764.141 866.562 799.556 861.911 824.066 z M 1150.96 491.111 L 1150.86 441.016 C 1066.08 440.999 977.485 442.304 893.022 440.933 L 893.01 491.1 C 926.364 491.975 960.941 491.374 994.397 491.286 L 1150.96 491.111 z M 1166.5 738.998 L 1149.08 739.095 L 1149.08 799.497 C 1160.65 806.458 1170.16 812.266 1181.11 820.349 C 1176.33 794.425 1171.94 764.167 1166.5 738.998 z M 894.946 1317.25 C 894.938 1296.13 894.534 1273.63 895.094 1252.62 C 883.363 1244.97 872.578 1236.63 861.466 1229.37 C 866.78 1256.26 872.851 1290.22 876.456 1317.35 L 894.946 1317.25 z M 1129.25 365.5 C 1129.26 354.18 1129.13 342.463 1129.33 331.18 C 1111.87 331.897 1091.97 331.411 1074.29 331.463 C 1061.59 331.5 1044.38 331.995 1032.07 331.347 C 1032.13 338.779 1034.05 377.517 1029.29 381.335 C 1005.93 400.05 1011.76 342.997 1011.91 331.22 C 983.542 331.413 941.696 332.561 914.218 331.37 C 914.281 360.408 915.098 392.928 914.288 421.671 L 1129.19 421.544 L 1129.25 365.5 z"/>
<path transform="translate(0,0)" fill="currentColor" d="M 1004.54 807.613 C 1125.95 796.782 1233.08 886.614 1243.57 1008.06 C 1254.06 1129.5 1163.93 1236.38 1042.46 1246.53 C 921.468 1256.64 815.104 1166.95 804.653 1045.98 C 794.201 925.014 883.603 818.401 1004.54 807.613 z M 1044.24 1227.11 C 1154.82 1215.99 1235.43 1117.32 1224.27 1006.74 C 1213.11 896.173 1114.41 815.598 1003.84 826.797 C 893.326 837.991 812.8 936.634 823.954 1047.15 C 835.109 1157.67 933.724 1238.23 1044.24 1227.11 z"/>
<path transform="translate(0,0)" fill="currentColor" d="M 1021.06 868.777 C 1030.63 868.993 1033.22 871.898 1033.61 881.54 C 1034.12 894.164 1033.78 906.973 1033.8 919.608 L 1033.95 994.938 C 1055.81 1004.14 1062.37 1020.94 1053.65 1042.87 C 1061.58 1051.28 1115.85 1103.38 1117.01 1110.22 C 1117.42 1112.62 1116.44 1115.31 1114.98 1117.18 C 1113.29 1119.34 1111.17 1120.54 1108.43 1120.68 C 1104.21 1120.89 1099.19 1115.27 1096.22 1112.6 L 1040.29 1056.84 C 1029.98 1060.46 1020.86 1062.08 1010.42 1057.44 C 1002.26 1053.78 995.898 1047.02 992.752 1038.65 C 985.475 1019.25 995.807 1001.93 1014.64 995.26 C 1012.54 957.364 1014.68 916.335 1014.54 878.21 C 1014.53 873.087 1017.33 871.699 1021.06 868.777 z M 1029.54 1040.4 C 1036.76 1037.46 1040.33 1029.3 1037.58 1022 C 1034.83 1014.71 1026.77 1010.93 1019.4 1013.49 C 1014.46 1015.2 1010.84 1019.46 1009.95 1024.61 C 1009.05 1029.77 1011.02 1035 1015.1 1038.28 C 1019.17 1041.56 1024.7 1042.37 1029.54 1040.4 z"/>
<path transform="translate(0,0)" fill="currentColor" d="M 865.593 246.103 C 876.749 245.144 894.697 245.674 906.341 245.676 L 980.809 245.693 C 1004.44 245.699 1170.25 243.683 1179.6 246.903 C 1181.45 247.541 1182.69 249.051 1183.48 250.838 C 1184.71 253.587 1185.13 256.86 1185.26 259.838 C 1185.95 275.722 1186.14 382.402 1183.5 389.702 C 1177.57 396.379 1166.77 395.516 1165.95 385.441 C 1164.92 372.902 1165.38 360.083 1165.44 347.477 C 1165.64 323.902 1165.7 300.326 1165.63 276.75 L 1165.73 265.097 L 878.705 265.192 L 878.672 347.506 C 878.673 355.699 880.925 384.739 875.851 391.428 C 873.034 395.141 859.664 395.83 859.392 385.615 C 858.272 343.553 859.148 301.023 859.066 258.903 C 859.049 251.93 860.581 250.708 865.593 246.103 z"/>
</svg>