<?xml version="1.0" encoding="UTF-8"?>
<!-- Created with Inkscape by VulcanSphere (http://www.inkscape.org/ and http://vulcansphere.com) -->
<svg width="166.66mm" height="47.252mm" version="1.1" viewBox="0 0 166.66 47.252" xmlns="http://www.w3.org/2000/svg">
 <title>Screen International</title>
 <desc>Film trade magazine</desc>
 <defs>
  <clipPath id="clipPath71">
   <path transform="translate(-144.12 -813.77)" d="m15 15h711.5v966.61h-711.5z"/>
  </clipPath>
  <clipPath id="clipPath72">
   <path transform="translate(-244.82 -813.77)" d="m15 15h711.5v966.61h-711.5z"/>
  </clipPath>
  <clipPath id="clipPath73">
   <path transform="translate(-356.56 -816.08)" d="m15 15h711.5v966.61h-711.5z"/>
  </clipPath>
  <clipPath id="clipPath74">
   <path transform="translate(-394.96 -816.08)" d="m23.504 23.504h694.49v949.61h-694.49z"/>
  </clipPath>
  <clipPath id="clipPath75">
   <path transform="translate(-476.04 -816.08)" d="m23.504 23.504h694.49v949.61h-694.49z"/>
  </clipPath>
  <clipPath id="clipPath76">
   <path transform="translate(-616.3 -816.08)" d="m15 15h711.5v966.61h-711.5z"/>
  </clipPath>
  <clipPath id="clipPath77">
   <path d="m23.504 23.504h694.49v949.61h-694.49z"/>
  </clipPath>
  <clipPath id="clipPath78">
   <path transform="translate(-196.81 -781.4)" d="m15 15h711.5v966.61h-711.5z"/>
  </clipPath>
  <clipPath id="clipPath79">
   <path transform="translate(-231.59 -796.45)" d="m23.504 23.504h694.49v949.61h-694.49z"/>
  </clipPath>
  <clipPath id="clipPath80">
   <path transform="translate(-256.8 -781.4)" d="m23.504 23.504h694.49v949.61h-694.49z"/>
  </clipPath>
  <clipPath id="clipPath81">
   <path transform="translate(-300 -781.4)" d="m15 15h711.5v966.61h-711.5z"/>
  </clipPath>
  <clipPath id="clipPath82">
   <path transform="translate(-336.51 -781.4)" d="m15 15h711.5v966.61h-711.5z"/>
  </clipPath>
  <clipPath id="clipPath83">
   <path transform="translate(-374.05 -781.4)" d="m23.504 23.504h694.49v949.61h-694.49z"/>
  </clipPath>
  <clipPath id="clipPath84">
   <path transform="translate(-408.42 -796.45)" d="m23.504 23.504h694.49v949.61h-694.49z"/>
  </clipPath>
  <clipPath id="clipPath85">
   <path d="m23.504 23.504h694.49v949.61h-694.49z"/>
  </clipPath>
  <clipPath id="clipPath86">
   <path transform="translate(-468.14 -781.04)" d="m15 15h711.5v966.61h-711.5z"/>
  </clipPath>
  <clipPath id="clipPath87">
   <path transform="translate(-507.68 -781.4)" d="m15 15h711.5v966.61h-711.5z"/>
  </clipPath>
  <clipPath id="clipPath88">
   <path transform="translate(-545.22 -781.4)" d="m23.504 23.504h694.49v949.61h-694.49z"/>
  </clipPath>
  <clipPath id="clipPath89">
   <path transform="translate(-570.87 -781.4)" d="m23.504 23.504h694.49v949.61h-694.49z"/>
  </clipPath>
 </defs>
 <g transform="translate(-126.21 -65.087)" fill="#090909">
  <path transform="matrix(.30612 0 0 -.30612 139.7 102.32)" d="m0 0c-23.897 0-45.488 9.723-44.005 44.663h26.535c-0.494-19.612 7.087-23.897 17.964-23.897 4.945 0 15.987 0.823 15.987 13.185 0 12.526-20.272 15.986-26.699 17.8-21.426 6.098-31.974 11.207-31.974 36.918 0 16.481 15.987 32.962 40.709 32.962 22.579 0 45.323-8.406 45.158-41.368h-26.535c0.824 18.624-9.888 20.436-17.14 20.436-8.241 0-14.504-3.296-14.504-11.371 0-9.725 13.021-11.537 22.251-14.503 9.558-3.132 36.587-7.912 36.587-37.907 0-20.767-15.327-36.918-44.334-36.918" clip-path="url(#clipPath71)"/>
  <path transform="matrix(.30612 0 0 -.30612 170.52 102.32)" d="m0 0c-30.82 0-48.949 12.36-48.949 62.134 0 29.666 10.878 59.497 49.938 59.497 27.853 0 42.027-16.151 41.038-46.313h-26.534c0.329 18.295-7.747 23.734-15.493 23.734-16.151 0-17.305-17.635-17.47-38.072-0.329-37.577 10.548-38.402 17.47-38.402 8.24 0 16.317 4.121 15.493 26.206h26.534c1.483-41.203-20.766-48.784-42.027-48.784" clip-path="url(#clipPath72)"/>
  <path transform="matrix(.30612 0 0 -.30612 204.73 101.61)" d="m0 0-14.338 44.829h-16.317v-44.829h-29.995v117.02h42.686c37.907 0 44.994-17.306 44.994-36.424 0-20.601-8.241-27.194-14.504-30.16l18.459-50.433zm-20.271 95.921h-10.384v-29.996h8.9c15.328 0 17.965 0.494 17.965 14.998 0 12.195-3.791 14.998-16.481 14.998" clip-path="url(#clipPath73)"/>
  <path transform="matrix(.30612 0 0 -.30612 216.49 101.61)" d="m0 0v117.02h71.199v-21.096h-41.203v-26.206h36.918l-2.637-21.096h-34.281v-27.523h41.203v-21.096z" clip-path="url(#clipPath74)"/>
  <path transform="matrix(.30612 0 0 -.30612 241.31 101.61)" d="m0 0v117.02h71.199v-21.096h-41.203v-26.206h36.918l-2.637-21.096h-34.281v-27.523h41.203v-21.096z" clip-path="url(#clipPath75)"/>
  <path transform="matrix(.30612 0 0 -.30612 284.24 101.61)" d="m0 0-32.797 65.43c0.33-0.329 0-65.43 0-65.43h-26.37v117.02h28.348l32.633-62.794v62.794h26.369v-117.02z" clip-path="url(#clipPath76)"/>
  <path transform="matrix(.30612 0 0 -.30612 95.583 351.43)" d="m160.2 799.76h5.197v-18.358h-5.197z" clip-path="url(#clipPath77)"/>
  <path transform="matrix(.30612 0 0 -.30612 155.83 112.23)" d="m0 0-5.663 10.264c0.052-0.051 0-10.264 0-10.264h-4.55v18.358h4.886l5.637-9.851v9.851h4.551v-18.358z" clip-path="url(#clipPath78)"/>
  <path transform="matrix(.30612 0 0 -.30612 166.48 107.62)" d="m0 0v-15.047h-5.197v15.047h-5.042v3.31h15.281v-3.31z" clip-path="url(#clipPath79)"/>
  <path transform="matrix(.30612 0 0 -.30612 174.19 112.23)" d="m0 0v18.358h12.308v-3.311h-7.11v-4.11h6.36l-0.465-3.31h-5.895v-4.317h7.11v-3.31z" clip-path="url(#clipPath80)"/>
  <path transform="matrix(.30612 0 0 -.30612 187.42 112.23)" d="m0 0-2.482 7.033h-2.818v-7.033h-5.172v18.358h7.369c6.542 0 7.757-2.715 7.757-5.715 0-3.232-1.422-4.266-2.508-4.731l3.207-7.912zm-3.49 15.047h-1.81v-4.704h1.551c2.637 0 3.102 0.076 3.102 2.352 0 1.914-0.646 2.352-2.843 2.352" clip-path="url(#clipPath81)"/>
  <path transform="matrix(.30612 0 0 -.30612 198.59 112.23)" d="m0 0-5.662 10.264c0.051-0.051 0-10.264 0-10.264h-4.551v18.358h4.887l5.636-9.851v9.851h4.551v-18.358z" clip-path="url(#clipPath82)"/>
  <path transform="matrix(.30612 0 0 -.30612 210.09 112.23)" d="m0 0-1.086 3.749h-6.05l-1.19-3.749h-4.188l6.18 18.358h5.662l6.153-18.358zm-4.007 13.807-2.12-6.774h4.085z" clip-path="url(#clipPath83)"/>
  <path transform="matrix(.30612 0 0 -.30612 220.61 107.62)" d="m0 0v-15.047h-5.197v15.047h-5.041v3.31h15.281v-3.31z" clip-path="url(#clipPath84)"/>
  <path transform="matrix(.30612 0 0 -.30612 95.583 351.43)" d="m433.63 799.76h5.197v-18.358h-5.197z" clip-path="url(#clipPath85)"/>
  <path transform="matrix(.30612 0 0 -.30612 238.89 112.34)" d="m0 0c-6.748 0-8.894 4.888-8.894 9.541 0 4.654 2.146 9.541 8.894 9.541 6.749 0 8.895-4.913 8.895-9.566 0-4.654-2.146-9.516-8.895-9.516m0 15.669c-2.792 0-3.361-2.921-3.361-6.128 0-3.206 0.569-6.128 3.361-6.128 2.793 0 3.361 2.922 3.361 6.128 0 3.207-0.568 6.128-3.361 6.128" clip-path="url(#clipPath86)"/>
  <path transform="matrix(.30612 0 0 -.30612 250.99 112.23)" d="m0 0-5.662 10.264c0.051-0.051 0-10.264 0-10.264h-4.551v18.358h4.886l5.637-9.851v9.851h4.55v-18.358z" clip-path="url(#clipPath87)"/>
  <path transform="matrix(.30612 0 0 -.30612 262.48 112.23)" d="m0 0-1.086 3.749h-6.051l-1.189-3.749h-4.188l6.179 18.358h5.663l6.153-18.358zm-4.007 13.807-2.12-6.774h4.085z" clip-path="url(#clipPath88)"/>
  <path transform="matrix(.30612 0 0 -.30612 270.33 112.23)" d="m0 0v18.358h5.197v-15.048h7.085v-3.31z" clip-path="url(#clipPath89)"/>
 </g>
</svg>
