<svg version="1.1" xmlns="http://www.w3.org/2000/svg" style="display: block;" viewBox="0 0 2048 2048" width="1024" height="1024" preserveAspectRatio="none">
<path transform="translate(0,0)" fill="rgb(0,0,0)" d="M 1022.08 1086.3 C 1030.64 1076.83 1041.89 1066.4 1051.18 1057.26 L 1097.84 1011.03 L 1258.08 853.012 L 1330 782.172 C 1339.18 773.105 1362.64 748.578 1372.46 742.793 C 1387.73 742.51 1390.08 750.899 1390.15 764.102 C 1390.54 831.208 1389.03 898.731 1390.27 965.797 C 1384.24 975.143 1363.2 994.47 1354.19 1003.27 L 1296.83 1060.41 C 1287.3 1069.86 1271.35 1084.42 1263.03 1094.1 C 1300.53 1093.8 1338.03 1093.8 1375.52 1094.09 C 1348.07 1119.98 1319.74 1149.43 1292.68 1176.17 L 1108.84 1357.82 C 1079.97 1386.42 1050.96 1416.37 1021.77 1444.47 C 1011.52 1435.96 994.98 1418.43 985.057 1408.51 L 915.111 1338.91 L 665.775 1094.14 C 703.697 1094.57 741.694 1093.87 779.749 1094.44 C 753.886 1068.06 725.057 1042.1 699.086 1015.46 C 686.022 1002.07 669.15 988.606 656.901 974.441 C 654.617 941.295 656.267 889.188 656.314 854.626 L 656.24 797.088 C 656.213 788.906 654.609 760.88 659.103 754.525 C 665.137 745.992 680.664 748.294 686.526 755.97 C 724.574 793.362 762.237 831.155 800.148 868.678 L 1022.08 1086.3 z M 686.15 799.443 L 686.366 909.868 C 686.335 919.467 684.143 959.292 688.687 963.773 C 708.813 981.941 730.344 1004.23 749.833 1023.52 L 834.675 1106.84 C 897.481 1167.69 959.897 1228.94 1021.92 1290.6 L 1228.05 1087.01 C 1271.92 1043.71 1318.01 999.053 1361.09 955.072 L 1361.09 845.206 C 1361.11 836.674 1361.61 800.375 1360.5 794.829 L 1141.49 1009.85 L 1067.12 1083.52 C 1055.23 1095.34 1043.25 1107.85 1031.15 1119.48 C 1028.58 1121.95 1024.44 1122.4 1020.94 1122.95 C 1011.32 1119.45 966.738 1073.22 956.31 1063.02 L 777.127 887.5 C 756.368 866.786 735.39 846.293 714.195 826.026 C 706.878 818.999 693.388 805.167 686.15 799.443 z"/>
<path transform="translate(0,0)" fill="rgb(48,75,177)" d="M 1263.03 1094.1 C 1300.53 1093.8 1338.03 1093.8 1375.52 1094.09 C 1348.07 1119.98 1319.74 1149.43 1292.68 1176.17 L 1108.84 1357.82 C 1079.97 1386.42 1050.96 1416.37 1021.77 1444.47 C 1011.52 1435.96 994.98 1418.43 985.057 1408.51 L 915.111 1338.91 L 665.775 1094.14 C 703.697 1094.57 741.694 1093.87 779.749 1094.44 L 937.747 1249.25 L 984.716 1295.2 C 993.479 1303.84 1001.92 1312.61 1011.1 1320.85 C 1017.72 1326.81 1024.38 1328.08 1031.49 1321.88 C 1041.24 1313.39 1050.4 1303.86 1059.59 1294.73 L 1108.67 1246.16 L 1202.73 1153.4 C 1222.7 1133.77 1243.52 1114.05 1263.03 1094.1 z"/>
<path transform="translate(0,0)" fill="rgb(0,0,0)" d="M 1366.27 631.774 C 1387.28 632.954 1388.96 649.427 1375.49 662.254 C 1356.58 680.26 1338.18 698.74 1319.65 717.133 L 1181.92 853.954 L 1080.29 954.796 C 1064.25 970.588 1048.13 986.898 1031.73 1002.33 C 1028.85 1005.04 1024.86 1005.85 1021.06 1006.06 C 1018.16 1006.22 1011.45 1000.56 1009.17 998.324 C 996.644 986.012 984.133 973.557 971.588 961.244 C 940.865 931.134 910.303 900.86 879.903 870.423 L 680.095 672.323 C 675.28 667.642 661.258 655.341 661.873 649.542 C 663.925 630.183 678.214 628.651 690.338 640.513 C 701.396 651.333 711.125 660.768 721.034 670.654 L 780.172 729.516 L 1022.76 969.914 C 1038.88 952.701 1059.28 933.556 1076.28 916.867 L 1153.09 840.666 L 1266.27 728.263 C 1278.99 715.603 1356.07 636.3 1366.27 631.774 z"/>
</svg>