<?xml version="1.0" encoding="UTF-8" standalone="no"?>
<!-- Created with Inkscape (http://www.inkscape.org/) -->

<svg
   width="1540"
   height="465.36896"
   viewBox="0 0 407.45833 123.12887"
   version="1.1"
   id="svg5"
   inkscape:version="1.1.1 (3bf5ae0d25, 2021-09-20)"
   sodipodi:docname="Variety.svg"
   xmlns:inkscape="http://www.inkscape.org/namespaces/inkscape"
   xmlns:sodipodi="http://sodipodi.sourceforge.net/DTD/sodipodi-0.dtd"
   xmlns="http://www.w3.org/2000/svg"
   xmlns:svg="http://www.w3.org/2000/svg"
   xmlns:rdf="http://www.w3.org/1999/02/22-rdf-syntax-ns#"
   xmlns:cc="http://creativecommons.org/ns#"
   xmlns:dc="http://purl.org/dc/elements/1.1/">
  <sodipodi:namedview
     id="namedview7"
     pagecolor="#ffffff"
     bordercolor="#666666"
     borderopacity="1.0"
     inkscape:pageshadow="2"
     inkscape:pageopacity="0.0"
     inkscape:pagecheckerboard="0"
     inkscape:document-units="cm"
     showgrid="false"
     units="px"
     inkscape:showpageshadow="false"
     showguides="true"
     inkscape:guide-bbox="true"
     inkscape:zoom="0.33279551"
     inkscape:cx="531.85813"
     inkscape:cy="392.13269"
     inkscape:window-width="1366"
     inkscape:window-height="705"
     inkscape:window-x="-8"
     inkscape:window-y="-8"
     inkscape:window-maximized="1"
     inkscape:current-layer="layer1"
     lock-margins="true"
     fit-margin-top="20"
     fit-margin-left="20"
     fit-margin-right="20"
     fit-margin-bottom="20" />
  <defs
     id="defs2" />
  <g
     inkscape:label="Capa 1"
     inkscape:groupmode="layer"
     id="layer1"
     transform="translate(-31.332355,-171.29615)">
    <g
       data-name="logo Variety"
       id="g835"
       transform="matrix(2.6796557,0,0,2.6796557,35.44651,176.58782)"
       style="fill:#000000;stroke:none">
      <path
         d="m 148.33,13.12 -0.21,0.94 -1.93,0.52 a 2.18,2.18 0 0 0 -1,0.78 l -8.89,11.25 -3.31,11 c -0.18,0.57 0.05,0.91 0.42,1 l 2.32,0.57 -0.31,0.94 h -11.56 l 0.31,-0.94 2.17,-0.52 a 1.39,1.39 0 0 0 1.1,-1.15 l 3.31,-11.14 -2.9,-10.88 c -0.13,-0.52 -0.29,-0.94 -0.83,-1.1 l -1.36,-0.37 0.21,-0.94 h 9.86 l -0.21,0.94 -1.67,0.47 c -0.6,0.16 -0.73,0.47 -0.57,1 l 2.37,9.23 7,-9.34 a 1,1 0 0 0 0.21,-0.52 0.47,0.47 0 0 0 -0.42,-0.42 l -1.88,-0.47 0.26,-0.94 z"
         id="path825"
         style="fill:#000000;stroke:none" />
      <path
         data-name="Path"
         d="M 125.34,19.28 H 124 l -1.15,-3.52 a 1,1 0 0 0 -1.15,-0.83 h -2.9 l -6.78,22.72 c -0.18,0.57 0,0.91 0.52,1 l 1.88,0.52 -0.31,0.94 h -11.3 l 0.31,-0.94 2,-0.47 c 0.89,-0.21 1.07,-0.47 1.3,-1.25 l 6.73,-22.57 h -3.37 a 1.58,1.58 0 0 0 -1.25,0.78 L 106.19,19 h -1.3 L 107,12.44 h 0.83 a 1,1 0 0 0 1,0.68 h 14.11 a 1.32,1.32 0 0 0 1.36,-0.68 h 0.89 z M 104.4,18.94 h -1.3 l -1.25,-3.37 a 1,1 0 0 0 -1,-0.68 h -5.4 L 92.4,25.17 h 5.09 c 0.52,0 0.83,-0.26 1.2,-0.78 l 1.41,-2.06 h 1.3 L 99,30.52 h -1.3 l 0.05,-2.9 c 0,-0.52 -0.31,-0.68 -0.83,-0.68 h -5 L 88.48,38.3 h 7.41 a 1.91,1.91 0 0 0 1.88,-0.83 l 2.95,-3.68 h 1.41 l -3,7.1 h -0.94 c -0.26,-0.52 -0.63,-0.73 -1.57,-0.73 h -17 l 0.31,-0.94 2,-0.52 a 1.4,1.4 0 0 0 1,-1.15 l 6.52,-22 a 0.67,0.67 0 0 0 -0.31,-0.89 l -1.83,-0.57 0.26,-0.94 h 14.66 a 1.23,1.23 0 0 0 1.15,-0.68 h 0.83 z"
         id="path827"
         style="fill:#000000;stroke:none" />
      <path
         data-name="Path"
         d="m 148.06,6 a 193,193 0 0 1 -40.23,4.25 c -32,0 -54.5,-4.36 -64,-6.63 L 3.8,41.58 0.54,42 12.31,6.18 A 43.28,43.28 0 0 1 1.22,9 C 0.31,9.1 0.28,8.58 0.7,8.35 A 10.46,10.46 0 0 0 6,2.27 C 11.77,3.68 16.12,2.58 21.39,0.65 L 10.77,30.78 39.13,0 a 261.16,261.16 0 0 0 52.06,5.45 c 13.8,0 25.9,-2.17 32.14,-4.72 8.77,5.22 18.78,4.77 24.52,4.41 0.83,-0.05 0.94,0.73 0.21,0.89"
         id="path829"
         style="fill:#000000;stroke:none" />
      <path
         data-name="Path"
         d="m 86.37,13.12 -0.26,0.94 -2.22,0.63 a 1.11,1.11 0 0 0 -0.78,0.89 l -6.52,21.83 c -0.18,0.65 -0.34,1.07 0.47,1.3 l 1.57,0.47 -0.31,0.94 H 67.87 l 0.31,-0.94 1.51,-0.47 c 0.86,-0.26 1.12,-0.57 1.3,-1.25 l 6.47,-21.94 c 0.13,-0.47 0,-0.78 -0.37,-0.89 l -1.72,-0.57 0.26,-0.94 z M 70.8,19.8 c 0,4.1 -3.26,7.67 -8.56,7.46 a 13.07,13.07 0 0 1 -3.05,-0.47 c 0,5 1.54,10.12 4.51,10.12 1.83,0 2.37,-1.54 2.63,-2.84 0.05,-0.21 0.21,-0.37 0.47,-0.1 a 4.28,4.28 0 0 1 1.3,3.16 c 0,3.08 -2,4.46 -4.88,4.46 -7.43,0 -7.77,-10.7 -6.57,-17.27 0.08,-0.37 0.21,-0.42 0.47,-0.26 a 6.52,6.52 0 0 0 3.57,0.89 c 2.4,0 4.67,-1.9 4.67,-5.35 0,-3.45 -2.86,-5.6 -7.09,-5.6 l -7,23.5 a 1.79,1.79 0 0 0 -0.1,0.57 0.52,0.52 0 0 0 0.47,0.57 l 2,0.52 -0.31,0.94 H 42.91 l 0.31,-0.94 1.57,-0.47 c 0.5,-0.16 0.7,-0.44 0.94,-1.2 L 52.66,14 c -3,0.63 -4.46,1.75 -4.46,3.47 a 2.93,2.93 0 0 0 0.52,1.88 0.94,0.94 0 0 1 0.16,0.52 c 0,0.39 -0.34,0.73 -1.3,0.73 a 2.82,2.82 0 0 1 -3,-3.1 c 0,-1.3 0.81,-5.71 12.29,-5.71 9.73,0 13.93,3.16 13.93,8"
         id="path831"
         style="fill:#000000;stroke:none" />
      <path
         d="M 37.09,17.9 26.32,31.17 h 9.55 z m 5.56,21.31 -0.31,0.94 h -9.87 l 0.31,-0.94 1.72,-0.47 a 1,1 0 0 0 0.78,-1 L 35.7,33.17 H 24.62 L 21,37.54 a 1.24,1.24 0 0 0 -0.37,0.68 c 0,0.23 0.13,0.39 0.42,0.47 l 1.67,0.52 -0.31,0.94 h -8.3 l 0.37,-0.94 1.72,-0.42 a 3.4,3.4 0 0 0 1.67,-1.15 l 22.4,-26.34 2.32,-0.42 -2.16,26.87 c -0.05,0.57 0,0.94 0.68,1.1 z"
         id="path833"
         style="fill:#000000;stroke:none" />
    </g>
  </g>
  <metadata
     id="metadata885">
    <rdf:RDF>
      <cc:Work
         rdf:about="">
        <dc:subject>
          <rdf:Bag>
            <rdf:li>Variety</rdf:li>
            <rdf:li>Magazine</rdf:li>
            <rdf:li>Logo</rdf:li>
            <rdf:li>SVG</rdf:li>
            <rdf:li>Text</rdf:li>
          </rdf:Bag>
        </dc:subject>
      </cc:Work>
    </rdf:RDF>
  </metadata>
</svg>
