<svg version="1.1" xmlns="http://www.w3.org/2000/svg" style="display: block;" viewBox="0 0 2048 2048" width="1024" height="1024" preserveAspectRatio="none">
<path transform="translate(0,0)" fill="rgb(2,210,86)" d="M 991.145 635.5 C 992.062 635.424 992.981 635.36 993.9 635.307 C 1219.54 623.802 1449.43 723.495 1614.67 872.858 C 1637 893.047 1740.5 994.036 1741.27 1021.95 C 1741.42 1028.16 1740 1034.32 1737.16 1039.85 C 1730.36 1053.16 1683.37 1106.07 1671.63 1118.64 C 1515.15 1286.08 1286.76 1404.44 1055.74 1412.13 C 833.481 1424.39 603.268 1326.36 439.182 1179.92 C 400.967 1145.57 365.379 1108.4 332.715 1068.73 C 324.226 1058.3 305.671 1037.25 306.688 1024.54 C 308.498 1001.9 343.139 965.202 358.136 948.489 C 521.366 766.59 745.133 647.272 991.145 635.5 z M 1047.5 1330.13 C 1216.49 1317.2 1343.08 1169.83 1330.37 1000.82 C 1317.66 831.808 1170.46 705.029 1001.43 717.518 C 832.086 730.029 705.021 877.563 717.755 1046.89 C 730.488 1216.21 878.189 1343.08 1047.5 1330.13 z M 374.882 1024.25 C 380.751 1030.98 386.177 1038.04 391.971 1044.73 C 452.442 1114.64 529.942 1184.19 610.016 1230.48 C 670.478 1267.52 735.28 1296.97 802.953 1318.14 C 726.063 1262.45 673.6 1173.06 658.961 1079.58 C 644.277 982.697 668.841 883.961 727.207 805.253 C 746.023 779.564 774.115 751.976 799.054 731.89 L 798.802 731.188 L 798.098 731.15 C 669.547 772.395 552.163 842.563 454.965 936.261 C 429.233 960.697 396.094 995.606 374.882 1024.25 z M 1245.16 1318.33 C 1313.74 1296.82 1379.38 1266.85 1440.56 1229.12 C 1504.79 1189.77 1563.77 1142.42 1616.08 1088.22 C 1635.91 1067.66 1655.01 1043.79 1673.84 1024.56 C 1578.61 905.512 1454.79 812.526 1313.92 754.27 C 1297.56 747.668 1263.14 733.818 1245.94 729.774 C 1259.94 741.054 1273.55 752.174 1286.26 764.947 C 1345.02 824.048 1381.91 901.403 1390.84 984.27 C 1401.79 1080.41 1373.79 1176.93 1313.11 1252.3 C 1291.33 1279.16 1271.87 1296.72 1245.16 1318.33 z"/>
<path transform="translate(0,0)" fill="rgb(2,210,86)" d="M 1008.25 860.274 C 1098.67 851.511 1179.04 917.776 1187.69 1008.21 C 1196.33 1098.64 1129.95 1178.93 1039.51 1187.44 C 949.238 1195.94 869.14 1129.73 860.516 1039.47 C 851.892 949.209 918.002 869.021 1008.25 860.274 z"/>
</svg>