<svg version="1.1" xmlns="http://www.w3.org/2000/svg" style="display: block;" viewBox="500 640 1048 760">
<path transform="translate(0,0)" fill="rgb(254,1,0)" d="M 1038.66 665.5 C 1132.43 665.87 1226.15 669.714 1319.63 677.024 C 1344.1 679.07 1391.3 682.235 1412.88 688.529 C 1435.02 694.961 1455.17 706.921 1471.42 723.281 C 1485.95 738.044 1496.92 755.926 1503.5 775.567 C 1509.92 794.16 1513.69 822.514 1516.37 842.399 C 1524.45 902.142 1528.67 962.343 1529.01 1022.63 C 1529.07 1083.79 1524.88 1144.89 1516.46 1205.48 C 1514.01 1224.16 1510.23 1254.15 1504.14 1271.5 C 1497.05 1291.64 1485.57 1309.96 1470.51 1325.1 C 1428.36 1366.94 1378.39 1366.26 1323.06 1370.97 C 1219.98 1378.86 1116.63 1382.61 1013.25 1382.21 C 920.435 1382.11 827.657 1378.54 735.109 1371.51 C 709.995 1369.54 660.628 1366.38 637.486 1359.93 C 615.737 1353.98 595.825 1342.68 579.568 1327.05 C 545.549 1293.78 540.48 1263.73 533.506 1218.91 C 524.6 1159.22 519.81 1098.99 519.172 1038.65 C 518.634 972.007 522.89 905.415 531.906 839.386 C 534.653 819.604 538.318 793.074 544.903 774.494 C 551.811 754.938 562.957 737.15 577.543 722.404 C 618.287 681.257 663.321 683.227 716.89 678.228 C 722.106 677.741 727.355 677.373 732.579 676.959 C 834.416 669.111 936.523 665.289 1038.66 665.5 z"/>
<path transform="translate(0,0)" fill="rgb(254,254,254)" d="M 925.886 875.663 C 955.319 891.369 988.618 911.69 1018.02 928.587 C 1073.03 960.121 1127.87 991.942 1182.55 1024.05 L 1089.26 1077.93 C 1036.12 1108.62 977.755 1140.63 925.973 1172.64 L 925.886 875.663 z"/>
</svg>